<svg width="42" height="42" viewBox="0 0 42 42" fill="none" xmlns="http://www.w3.org/2000/svg">
<path fill-rule="evenodd" clip-rule="evenodd" d="M28.3333 41H37C39.2667 41 41 39.2667 41 37V5C41 2.73333 39.2667 1 37 1H5C2.73333 1 1 2.73333 1 5V37C1 39.2667 2.73333 41 5 41H23C23.4 41 23.6667 40.7333 23.6667 40.3333V25.6667C23.6667 25.2667 23.4 25 23 25H18.3333V21H23C23.4 21 23.6667 20.7333 23.6667 20.3333V15C23.6667 10.7333 26.7333 7.66667 31 7.66667H34.3333V11.6667H31.6667C29.4 11.6667 27.6667 13.4 27.6667 15.6667V20.3333C27.6667 20.7333 27.9333 21 28.3333 21H34.0667L32.6 25H28.3333C27.9333 25 27.6667 25.2667 27.6667 25.6667V40.3333C27.6667 40.7333 27.9333 41 28.3333 41ZM37 39.6667H29V26.3333H33C33.2667 26.3333 33.5333 26.2 33.6667 25.9333L35.6667 20.6C35.6667 20.3333 35.6667 20.0667 35.5333 19.9333C35.4 19.8 35.2667 19.6667 35 19.6667H29V15.6667C29 14.2 30.2 13 31.6667 13H35C35.4 13 35.6667 12.7333 35.6667 12.3333V7C35.6667 6.6 35.4 6.33333 35 6.33333H31C26.0667 6.33333 22.3333 10.0667 22.3333 15V19.6667H17.6667C17.2667 19.6667 17 19.9333 17 20.3333V25.6667C17 26.0667 17.2667 26.3333 17.6667 26.3333H22.3333V39.6667H5C3.53333 39.6667 2.33333 38.4667 2.33333 37V5C2.33333 3.53333 3.53333 2.33333 5 2.33333H37C38.4667 2.33333 39.6667 3.53333 39.6667 5V37C39.6667 38.4667 38.4667 39.6667 37 39.6667Z" fill="white"/>
<path d="M18.3333 25H17.8333V25.5H18.3333V25ZM18.3333 21V20.5H17.8333V21H18.3333ZM34.3333 7.66667H34.8333V7.16667H34.3333V7.66667ZM34.3333 11.6667V12.1667H34.8333V11.6667H34.3333ZM34.0667 21L34.5361 21.1721L34.7826 20.5H34.0667V21ZM32.6 25V25.5H32.9492L33.0694 25.1721L32.6 25ZM29 39.6667H28.5V40.1667H29V39.6667ZM29 26.3333V25.8333H28.5V26.3333H29ZM33.6667 25.9333L34.1139 26.1569L34.1256 26.1335L34.1348 26.1089L33.6667 25.9333ZM35.6667 20.6L36.1348 20.7756L36.1667 20.6907V20.6H35.6667ZM35.5333 19.9333L35.1798 20.2869L35.1798 20.2869L35.5333 19.9333ZM29 19.6667H28.5V20.1667H29V19.6667ZM22.3333 19.6667V20.1667H22.8333V19.6667H22.3333ZM22.3333 26.3333H22.8333V25.8333H22.3333V26.3333ZM22.3333 39.6667V40.1667H22.8333V39.6667H22.3333ZM37 40.5H28.3333V41.5H37V40.5ZM40.5 37C40.5 38.9905 38.9905 40.5 37 40.5V41.5C39.5428 41.5 41.5 39.5428 41.5 37H40.5ZM40.5 5V37H41.5V5H40.5ZM37 1.5C38.9905 1.5 40.5 3.00948 40.5 5H41.5C41.5 2.45719 39.5428 0.5 37 0.5V1.5ZM5 1.5H37V0.5H5V1.5ZM1.5 5C1.5 3.00948 3.00948 1.5 5 1.5V0.5C2.45719 0.5 0.5 2.45719 0.5 5H1.5ZM1.5 37V5H0.5V37H1.5ZM5 40.5C3.00948 40.5 1.5 38.9905 1.5 37H0.5C0.5 39.5428 2.45719 41.5 5 41.5V40.5ZM23 40.5H5V41.5H23V40.5ZM23.1667 40.3333C23.1667 40.4197 23.1401 40.4528 23.1298 40.4631C23.1195 40.4734 23.0864 40.5 23 40.5V41.5C23.3136 41.5 23.6138 41.3933 23.8369 41.1702C24.0599 40.9472 24.1667 40.647 24.1667 40.3333H23.1667ZM23.1667 25.6667V40.3333H24.1667V25.6667H23.1667ZM23 25.5C23.0864 25.5 23.1195 25.5266 23.1298 25.5369C23.1401 25.5472 23.1667 25.5803 23.1667 25.6667H24.1667C24.1667 25.353 24.0599 25.0528 23.8369 24.8298C23.6138 24.6067 23.3136 24.5 23 24.5V25.5ZM18.3333 25.5H23V24.5H18.3333V25.5ZM17.8333 21V25H18.8333V21H17.8333ZM23 20.5H18.3333V21.5H23V20.5ZM23.1667 20.3333C23.1667 20.4197 23.1401 20.4528 23.1298 20.4631C23.1195 20.4734 23.0864 20.5 23 20.5V21.5C23.3136 21.5 23.6138 21.3933 23.8369 21.1702C24.0599 20.9472 24.1667 20.647 24.1667 20.3333H23.1667ZM23.1667 15V20.3333H24.1667V15H23.1667ZM31 7.16667C26.4572 7.16667 23.1667 10.4572 23.1667 15H24.1667C24.1667 11.0095 27.0095 8.16667 31 8.16667V7.16667ZM34.3333 7.16667H31V8.16667H34.3333V7.16667ZM34.8333 11.6667V7.66667H33.8333V11.6667H34.8333ZM31.6667 12.1667H34.3333V11.1667H31.6667V12.1667ZM28.1667 15.6667C28.1667 13.6761 29.6761 12.1667 31.6667 12.1667V11.1667C29.1239 11.1667 27.1667 13.1239 27.1667 15.6667H28.1667ZM28.1667 20.3333V15.6667H27.1667V20.3333H28.1667ZM28.3333 20.5C28.247 20.5 28.2138 20.4734 28.2036 20.4631C28.1933 20.4528 28.1667 20.4197 28.1667 20.3333H27.1667C27.1667 20.647 27.2734 20.9472 27.4964 21.1702C27.7195 21.3933 28.0197 21.5 28.3333 21.5V20.5ZM34.0667 20.5H28.3333V21.5H34.0667V20.5ZM33.0694 25.1721L34.5361 21.1721L33.5972 20.8279L32.1306 24.8279L33.0694 25.1721ZM28.3333 25.5H32.6V24.5H28.3333V25.5ZM28.1667 25.6667C28.1667 25.5803 28.1933 25.5472 28.2036 25.5369C28.2138 25.5266 28.247 25.5 28.3333 25.5V24.5C28.0197 24.5 27.7195 24.6067 27.4964 24.8298C27.2734 25.0528 27.1667 25.353 27.1667 25.6667H28.1667ZM28.1667 40.3333V25.6667H27.1667V40.3333H28.1667ZM28.3333 40.5C28.247 40.5 28.2138 40.4734 28.2036 40.4631C28.1933 40.4528 28.1667 40.4197 28.1667 40.3333H27.1667C27.1667 40.647 27.2734 40.9472 27.4964 41.1702C27.7195 41.3933 28.0197 41.5 28.3333 41.5V40.5ZM29 40.1667H37V39.1667H29V40.1667ZM28.5 26.3333V39.6667H29.5V26.3333H28.5ZM33 25.8333H29V26.8333H33V25.8333ZM33.2195 25.7097C33.1825 25.7835 33.105 25.8333 33 25.8333V26.8333C33.4283 26.8333 33.8841 26.6165 34.1139 26.1569L33.2195 25.7097ZM35.1985 20.4244L33.1985 25.7578L34.1348 26.1089L36.1348 20.7756L35.1985 20.4244ZM35.1798 20.2869C35.1534 20.2605 35.1449 20.2387 35.1448 20.2384C35.1447 20.2382 35.1461 20.2418 35.1482 20.2505C35.1503 20.2591 35.1527 20.2712 35.155 20.2874C35.1657 20.362 35.1667 20.4574 35.1667 20.6H36.1667C36.1667 20.4759 36.1676 20.3047 36.145 20.146C36.1232 19.9937 36.0689 19.7618 35.8869 19.5798L35.1798 20.2869ZM35 20.1667C35.0242 20.1667 35.037 20.1696 35.0423 20.1711C35.0474 20.1725 35.0523 20.1745 35.0594 20.1787C35.0816 20.192 35.1065 20.2137 35.1798 20.2869L35.8869 19.5798C35.7483 19.4412 35.4865 19.1667 35 19.1667V20.1667ZM29 20.1667H35V19.1667H29V20.1667ZM28.5 15.6667V19.6667H29.5V15.6667H28.5ZM31.6667 12.5C29.9239 12.5 28.5 13.9239 28.5 15.6667H29.5C29.5 14.4761 30.4761 13.5 31.6667 13.5V12.5ZM35 12.5H31.6667V13.5H35V12.5ZM35.1667 12.3333C35.1667 12.4197 35.1401 12.4528 35.1298 12.4631C35.1195 12.4734 35.0864 12.5 35 12.5V13.5C35.3136 13.5 35.6138 13.3933 35.8369 13.1702C36.0599 12.9472 36.1667 12.647 36.1667 12.3333H35.1667ZM35.1667 7V12.3333H36.1667V7H35.1667ZM35 6.83333C35.0864 6.83333 35.1195 6.85994 35.1298 6.87022C35.1401 6.8805 35.1667 6.91362 35.1667 7H36.1667C36.1667 6.68638 36.0599 6.38617 35.8369 6.16311C35.6138 5.94006 35.3136 5.83333 35 5.83333V6.83333ZM31 6.83333H35V5.83333H31V6.83333ZM22.8333 15C22.8333 10.3428 26.3428 6.83333 31 6.83333V5.83333C25.7905 5.83333 21.8333 9.79052 21.8333 15H22.8333ZM22.8333 19.6667V15H21.8333V19.6667H22.8333ZM17.6667 20.1667H22.3333V19.1667H17.6667V20.1667ZM17.5 20.3333C17.5 20.247 17.5266 20.2138 17.5369 20.2036C17.5472 20.1933 17.5803 20.1667 17.6667 20.1667V19.1667C17.353 19.1667 17.0528 19.2734 16.8298 19.4964C16.6067 19.7195 16.5 20.0197 16.5 20.3333H17.5ZM17.5 25.6667V20.3333H16.5V25.6667H17.5ZM17.6667 25.8333C17.5803 25.8333 17.5472 25.8067 17.5369 25.7964C17.5266 25.7862 17.5 25.753 17.5 25.6667H16.5C16.5 25.9803 16.6067 26.2805 16.8298 26.5036C17.0528 26.7266 17.353 26.8333 17.6667 26.8333V25.8333ZM22.3333 25.8333H17.6667V26.8333H22.3333V25.8333ZM22.8333 39.6667V26.3333H21.8333V39.6667H22.8333ZM5 40.1667H22.3333V39.1667H5V40.1667ZM1.83333 37C1.83333 38.7428 3.25719 40.1667 5 40.1667V39.1667C3.80947 39.1667 2.83333 38.1905 2.83333 37H1.83333ZM1.83333 5V37H2.83333V5H1.83333ZM5 1.83333C3.25719 1.83333 1.83333 3.25719 1.83333 5H2.83333C2.83333 3.80948 3.80948 2.83333 5 2.83333V1.83333ZM37 1.83333H5V2.83333H37V1.83333ZM40.1667 5C40.1667 3.25719 38.7428 1.83333 37 1.83333V2.83333C38.1905 2.83333 39.1667 3.80947 39.1667 5H40.1667ZM40.1667 37V5H39.1667V37H40.1667ZM37 40.1667C38.7428 40.1667 40.1667 38.7428 40.1667 37H39.1667C39.1667 38.1905 38.1905 39.1667 37 39.1667V40.1667Z" fill="white"/>
</svg>
