<svg width="33" height="32" viewBox="0 0 33 32" fill="none" xmlns="http://www.w3.org/2000/svg">
<path fill-rule="evenodd" clip-rule="evenodd" d="M4.79917 27.0491C7.87657 30.0251 11.9634 31.6638 16.3071 31.6638C20.6508 31.6638 24.7377 30.0251 27.8151 27.0491C30.9103 24.0569 32.6142 20.0727 32.6142 15.8317C32.6142 11.5906 30.9103 7.60686 27.8151 4.61423C24.7377 1.63865 20.6508 0 16.3071 0V3.83917C23.1821 3.83917 28.7751 9.21933 28.7751 15.8317C28.7751 22.4445 23.1821 27.8242 16.3071 27.8242C9.43252 27.8242 3.83917 22.4445 3.83917 15.8317H0C0 20.0727 1.70431 24.0569 4.79917 27.0491ZM3.70946 6.17409L9.42737 11.892H4.26206V15.7316H16.0032L15.9977 3.97635L12.1582 3.97843L12.1606 9.19508L6.42448 3.45866L3.70946 6.17409Z"/>
</svg>
