<svg xmlns="http://www.w3.org/2000/svg" width="10" height="13" viewBox="0 0 10 13">
  <defs>
    <style>
      .cls-1 {
        fill: #373737;
        fill-rule: evenodd;
      }
    </style>
  </defs>
  <path id="user.svg" class="cls-1" d="M949,3472.36a2.954,2.954,0,0,0,2.647-3.18c0-1.76-.389-3.18-2.647-3.18s-2.648,1.42-2.648,3.18A2.955,2.955,0,0,0,949,3472.36Zm-5,4.85c0-.11,0-0.03,0,0h0Zm10-.13c-0.049-3.06-.453-3.93-3.545-4.48a2.185,2.185,0,0,1-2.9,0c-3.058.55-3.487,1.41-3.543,4.38a0.527,0.527,0,0,1-.008.23c0,0.05,0,.15,0,0.32,0,0,.736,1.47,5,1.47s5-1.47,5-1.47v-0.24A1.719,1.719,0,0,1,953.994,3477.08Z" transform="translate(-944 -3466)"/>
</svg>
