<svg width="40" height="40" viewBox="0 0 40 40" fill="none" xmlns="http://www.w3.org/2000/svg">
<path fill-rule="evenodd" clip-rule="evenodd" d="M11.25 40H28.75C34.9632 40 40 34.9632 40 28.75V11.25C40 5.0368 34.9632 0 28.75 0H11.25C5.0368 0 0 5.0368 0 11.25V28.75C0 34.9632 5.0368 40 11.25 40ZM2.5 11.25C2.5 6.4175 6.4175 2.5 11.25 2.5L28.75 2.5C33.5825 2.5 37.5 6.4175 37.5 11.25V28.75C37.5 33.5825 33.5825 37.5 28.75 37.5H11.25C6.4175 37.5 2.5 33.5825 2.5 28.75V11.25Z" fill="white"/>
<path fill-rule="evenodd" clip-rule="evenodd" d="M10 20C10 25.5229 14.4771 30 20 30C25.5229 30 30 25.5229 30 20C30 14.4771 25.5229 10 20 10C14.4771 10 10 14.4771 10 20ZM12.5 20C12.5 15.8579 15.8579 12.5 20 12.5C24.1421 12.5 27.5 15.8579 27.5 20C27.5 24.1421 24.1421 27.5 20 27.5C15.8579 27.5 12.5 24.1421 12.5 20Z" fill="white"/>
<path d="M31.25 11.25C29.8693 11.25 28.75 10.1307 28.75 8.75C28.75 7.36929 29.8693 6.25 31.25 6.25C32.6307 6.25 33.75 7.36929 33.75 8.75C33.75 10.1307 32.6307 11.25 31.25 11.25Z" fill="white"/>
</svg>
