<svg width="214" height="32" viewBox="0 0 214 32" fill="none" xmlns="http://www.w3.org/2000/svg">
    <path fill-rule="evenodd" clip-rule="evenodd" d="M63.5862 14.9769V27.3455H59.9974V25.6132C58.8671 26.9711 57.0722 27.8702 54.5051 27.8702C49.5525 27.8702 46.4175 24.4114 46.4175 20.3142V11.5006C46.4175 7.12739 49.6843 3.552 55.0536 3.552C60.2929 3.552 63.4269 7.00985 63.4269 11.2274V11.5615H59.0631V11.2274C59.0631 9.10369 57.5896 7.32831 55.0536 7.32831C52.3208 7.32831 50.7973 9.19354 50.7973 11.5154V19.8708C50.7973 22.3486 52.3423 24.0942 55.1689 24.0942C57.7729 24.0942 59.5561 22.6837 59.5561 19.8849V18.6837H54.9461V14.9769H63.5862Z" fill="#121212"/>
    <path fill-rule="evenodd" clip-rule="evenodd" d="M69.8717 15.6455V16.4265H75.9682V15.6529C75.9682 13.9505 74.9128 12.6421 72.8902 12.6421C70.9228 12.6421 69.8717 13.9505 69.8717 15.6455ZM80.1216 21.4689V21.6548C80.1216 25.1212 77.4605 27.7717 72.9814 27.7717C68.5224 27.7717 65.8613 24.9935 65.8613 21.3486V15.58C65.8613 11.9569 68.4866 9.15723 72.8902 9.15723C77.369 9.15723 79.9783 11.9569 79.9783 15.5871V19.6538H69.8717V21.2834C69.8717 23.0003 70.9588 24.2868 72.9814 24.2868C74.9843 24.2868 76.1309 23.1277 76.1309 21.604V21.4689H80.1216Z" fill="#121212"/>
    <path fill-rule="evenodd" clip-rule="evenodd" d="M91.5038 9.15698V13.0388H90.307C87.9828 13.0388 86.4113 14.3653 86.4113 16.7625V27.3456H82.4009V9.58283H86.0612V11.6007C87.0183 10.0905 88.5898 9.15698 90.8355 9.15698H91.5038Z" fill="#121212"/>
    <path fill-rule="evenodd" clip-rule="evenodd" d="M115.478 27.3456H111.487L111.468 15.3714C111.466 13.7136 110.634 12.6422 108.907 12.6422C107.231 12.6422 106.244 13.7573 106.244 15.4921V27.3456H102.234V15.3714C102.234 13.7136 101.393 12.6422 99.6728 12.6422C98.1161 12.6422 97.1566 13.5819 97.0093 15.0779V27.3456H92.9995V9.58283H96.6602V11.0696C97.5411 9.88437 98.9012 9.15698 100.778 9.15698C102.757 9.15698 104.242 9.91637 105.161 11.097C106.097 9.89544 107.561 9.15698 109.61 9.15698C113.347 9.15698 115.478 11.6582 115.478 14.6958V27.3456Z" fill="#121212"/>
    <path fill-rule="evenodd" clip-rule="evenodd" d="M127.599 22.2194C127.599 20.856 126.615 19.6643 124.595 19.6643C122.661 19.6643 121.536 20.856 121.536 22.2194C121.536 23.5822 122.661 24.7597 124.595 24.7597C126.615 24.7597 127.599 23.5822 127.599 22.2194ZM131.462 15.5871V27.3455H127.956V26.0865C127.01 27.0748 125.598 27.7717 123.642 27.7717C119.67 27.7717 117.476 25.3394 117.476 22.2194C117.476 19.0985 119.796 16.6665 123.966 16.6665C125.407 16.6665 126.554 17.0477 127.436 17.6452V15.6345C127.436 13.8342 126.482 12.6422 124.716 12.6422C123.078 12.6422 121.995 13.6046 121.995 15.1757V15.4748H117.984V15.1462C117.984 11.6514 120.647 9.15723 124.716 9.15723C128.94 9.15723 131.462 11.9569 131.462 15.5871Z" fill="#121212"/>
    <path fill-rule="evenodd" clip-rule="evenodd" d="M148.124 14.8388V27.3456H144.113V15.6493C144.113 13.8373 143.156 12.6422 141.215 12.6422C139.386 12.6422 138.332 13.8194 138.332 15.6493V27.3456H134.321V9.58283H137.982V11.1241C138.875 9.90467 140.261 9.15698 142.184 9.15698C146.026 9.15698 148.124 11.7133 148.124 14.8388Z" fill="#121212"/>
    <path fill-rule="evenodd" clip-rule="evenodd" d="M171.575 7.39603L161.034 23.5677H171.52V27.3256H155.819V23.9865L166.276 7.81449H156.177V4.05664H171.575V7.39603Z" fill="#121212"/>
    <path fill-rule="evenodd" clip-rule="evenodd" d="M176.98 15.6258V16.4067H183.076V15.6331C183.076 13.9304 182.021 12.6224 179.998 12.6224C178.031 12.6224 176.98 13.9304 176.98 15.6258ZM187.229 21.4491V21.635C187.229 25.1015 184.568 27.7519 180.089 27.7519C175.63 27.7519 172.969 24.9738 172.969 21.3288V15.5599C172.969 11.9368 175.595 9.13745 179.998 9.13745C184.477 9.13745 187.086 11.9368 187.086 15.5673V19.6338H176.98V21.2633C176.98 22.9805 178.067 24.267 180.089 24.267C182.093 24.267 183.239 23.1079 183.239 21.5842V21.4491H187.229Z" fill="#121212"/>
    <path fill-rule="evenodd" clip-rule="evenodd" d="M198.612 9.13721V13.0191H197.415C195.091 13.0191 193.519 14.3452 193.519 16.7427V27.3255H189.509V9.56305H193.169V11.5809C194.126 10.0707 195.697 9.13721 197.943 9.13721H198.612Z" fill="#121212"/>
    <path fill-rule="evenodd" clip-rule="evenodd" d="M206.447 12.6221C204.46 12.6221 203.369 13.9304 203.369 15.6255V21.2634C203.369 22.9587 204.46 24.2667 206.447 24.2667C208.434 24.2667 209.525 22.9587 209.525 21.2634V15.6255C209.525 13.9304 208.434 12.6221 206.447 12.6221ZM213.535 15.5597V21.3286C213.535 24.9523 210.908 27.7517 206.447 27.7517C201.985 27.7517 199.359 24.9523 199.359 21.3286V15.5597C199.359 11.9366 201.985 9.13721 206.447 9.13721C210.908 9.13721 213.535 11.9366 213.535 15.5597Z" fill="#121212"/>
    <path fill-rule="evenodd" clip-rule="evenodd" d="M4.18343 11.9632V15.7263H15.7074L15.7022 4.20507L11.9337 4.20692L11.9361 9.32015L6.30588 3.698L3.64111 6.35892L9.25351 11.9632H4.18343Z" fill="#121212"/>
    <mask id="mask-big" mask-type="alpha" maskUnits="userSpaceOnUse" x="0" y="0" width="33" height="32">
        <path fill-rule="evenodd" clip-rule="evenodd" d="M0 0.307861H32.0113V31.3411H0V0.307861Z" fill="white"/>
    </mask>
    <g mask="url(#mask-big)">
        <path fill-rule="evenodd" clip-rule="evenodd" d="M27.3009 4.83032C24.2805 1.91371 20.2692 0.307861 16.0058 0.307861V4.07063C22.7534 4.07063 28.2428 9.34355 28.2428 15.8245C28.2428 22.3054 22.7534 27.578 16.0058 27.578C9.25795 27.578 3.76851 22.3054 3.76851 15.8245H0C0 19.9811 1.67318 23.8854 4.71048 26.8186C7.73114 29.7349 11.7425 31.3411 16.0058 31.3411C20.2692 31.3411 24.2805 29.7349 27.3009 26.8186C30.3385 23.8854 32.0114 19.9811 32.0114 15.8245C32.0114 11.6679 30.3385 7.76325 27.3009 4.83032Z" fill="#121212"/>
    </g>
</svg>
