<svg width="290" height="104" viewBox="0 0 290 104" xmlns="http://www.w3.org/2000/svg">
    <path fill-rule="evenodd" clip-rule="evenodd" d="M129.037 22.2626V45.4637H122.303V42.2139C120.182 44.7615 116.814 46.4471 111.997 46.4471C102.704 46.4471 96.8216 39.96 96.8216 32.274V15.7414C96.8216 7.53784 102.952 0.831917 113.026 0.831917C122.857 0.831917 128.738 7.31819 128.738 15.2288V15.8562H120.549V15.2288C120.549 11.2452 117.785 7.91473 113.026 7.91473C107.899 7.91473 105.039 11.4133 105.039 15.7696V31.442C105.039 36.0904 107.939 39.3643 113.242 39.3643C118.128 39.3643 121.475 36.7186 121.475 31.4695V29.2156H112.824V22.2626H129.037ZM9.6237 55.3577C15.7945 61.3157 23.9895 64.5962 32.6995 64.5962C41.4095 64.5962 49.6045 61.3157 55.7754 55.3577C61.982 49.3673 65.3987 41.3909 65.3987 32.9004C65.3987 24.4098 61.982 16.4342 55.7754 10.443C49.6045 4.48589 41.4095 1.20532 32.6995 1.20532V8.89133C46.4854 8.89133 57.7004 19.6624 57.7004 32.9004C57.7004 46.1391 46.4854 56.9094 32.6995 56.9094C18.9145 56.9094 7.6987 46.1391 7.6987 32.9004H0.000366211C0.000366211 41.3909 3.41787 49.3673 9.6237 55.3577ZM7.43862 13.5658L18.9042 25.0131H8.5467V32.6999H32.09L32.0792 9.16598L24.38 9.17014L24.385 19.6139L12.8828 8.12956L7.43862 13.5658ZM141.297 24.9818V23.5166C141.297 20.3367 143.27 17.8832 146.962 17.8832C150.757 17.8832 152.737 20.3367 152.737 23.53V24.9818H141.297ZM160.53 34.7886V34.44H153.042V34.6937C153.042 37.5517 150.892 39.7257 147.132 39.7257C143.337 39.7257 141.297 37.3129 141.297 34.0914V31.0354H160.262V23.4077C160.262 16.5977 155.365 11.3453 146.962 11.3453C138.699 11.3453 133.772 16.5977 133.772 23.3935V34.2145C133.772 41.0519 138.766 46.2627 147.132 46.2627C155.537 46.2627 160.53 41.2915 160.53 34.7886ZM182.355 11.3454V18.6271H180.109C175.747 18.6271 172.799 21.1156 172.799 25.6125V45.4641H165.274V12.1441H172.142V15.9289C173.938 13.0968 176.886 11.3454 181.101 11.3454H182.355ZM220.32 45.4639H227.808V21.7344C227.808 16.0369 223.81 11.3452 216.797 11.3452C212.953 11.3452 210.206 12.7305 208.449 14.9844C206.724 12.7705 203.938 11.3452 200.224 11.3452C196.704 11.3452 194.15 12.7097 192.498 14.9328V12.1448H185.63V45.4639H193.154V22.4516C193.429 19.6453 195.229 17.8831 198.151 17.8831C201.379 17.8831 202.956 19.8924 202.956 23.0024V45.4639H210.481V23.2287C210.481 19.9747 212.334 17.8831 215.478 17.8831C218.718 17.8831 220.279 19.8924 220.283 23.0024L220.32 45.4639ZM251.017 35.8476C251.017 33.29 249.17 31.0552 245.381 31.0552C241.751 31.0552 239.641 33.29 239.641 35.8476C239.641 38.4043 241.751 40.6124 245.381 40.6124C249.17 40.6124 251.017 38.4043 251.017 35.8476ZM258.264 23.4075V45.4638H251.687V43.1018C249.912 44.9555 247.263 46.2634 243.593 46.2634C236.138 46.2634 232.022 41.7007 232.022 35.8476C232.022 29.9936 236.377 25.4317 244.2 25.4317C246.904 25.4317 249.056 26.1464 250.712 27.268V23.4957C250.712 20.1186 248.921 17.883 245.607 17.883C242.534 17.883 240.502 19.6884 240.502 22.6354V23.1962H232.977V22.5805C232.977 16.0243 237.973 11.3452 245.607 11.3452C253.533 11.3452 258.264 16.5976 258.264 23.4075ZM289.997 45.4637V22.0038C289.997 16.1407 286.061 11.3451 278.851 11.3451C275.244 11.3451 272.643 12.7478 270.967 15.0358V12.1446H264.099V45.4637H271.624V23.5239C271.624 20.0911 273.603 17.8829 277.033 17.8829C280.675 17.8829 282.472 20.1252 282.472 23.5239V45.4637H289.997ZM127.711 65.6529L107.931 95.9877H127.607V103.037H98.1451V96.7731L117.766 66.4375H98.8176V59.388H127.711V65.6529ZM138.318 82.5548V81.0896C138.318 77.9097 140.29 75.4562 143.981 75.4562C147.777 75.4562 149.757 77.9097 149.757 81.1029V82.5548H138.318ZM157.551 92.3616V92.013H150.063V92.2667C150.063 95.1246 147.911 97.2987 144.153 97.2987C140.357 97.2987 138.318 94.8859 138.318 91.6644V88.6084H157.282V80.9806C157.282 74.1707 152.386 68.9183 143.981 68.9183C135.719 68.9183 130.793 74.1707 130.793 80.9665V91.7875C130.793 98.6249 135.786 103.836 144.153 103.836C152.557 103.836 157.551 98.8645 157.551 92.3616ZM179.375 68.9184V76.2001H177.129C172.768 76.2001 169.819 78.6886 169.819 83.1855V103.037H162.295V69.7179H169.163V73.5019C170.959 70.6697 173.907 68.9184 178.122 68.9184H179.375ZM188.771 81.0892C188.771 77.9101 190.818 75.4557 194.547 75.4557C198.275 75.4557 200.323 77.9101 200.323 81.0892V91.6648C200.323 94.8447 198.275 97.2982 194.547 97.2982C190.818 97.2982 188.771 94.8447 188.771 91.6648V81.0892ZM207.848 91.7879V80.9669C207.848 74.1703 202.919 68.9187 194.547 68.9187C186.175 68.9187 181.247 74.1703 181.247 80.9669V91.7879C181.247 98.5845 186.175 103.836 194.547 103.836C202.919 103.836 207.848 98.5845 207.848 91.7879Z" />
</svg>
