<svg width="41" height="33" viewBox="0 0 41 33" fill="none" xmlns="http://www.w3.org/2000/svg">
<path fill-rule="evenodd" clip-rule="evenodd" d="M1.31897 28.2C5.31897 30.6 9.58564 31.6667 13.719 31.6667C18.119 31.6667 22.519 30.3333 26.519 27.6667C33.319 23.1333 37.5856 15.4 37.0523 8.6C37.5856 8.06667 38.119 7.13333 38.6523 6.2C38.919 5.66667 39.1856 5.13333 39.5856 4.6C39.719 4.33333 39.719 4.06667 39.4523 3.8C39.1856 3.53333 38.919 3.53333 38.6523 3.66667C38.5418 3.7219 38.3628 3.8 38.153 3.89151C37.8562 4.02091 37.4981 4.17712 37.1856 4.33333C37.5856 3.53333 37.9856 2.6 38.2523 1.8C38.2523 1.53333 38.2523 1.26667 37.9856 1.13333C37.719 1 37.4523 1 37.1856 1.13333C35.8523 2.06667 33.9856 2.6 33.319 2.73333C29.8523 0.2 25.1856 0.466667 22.119 3.53333C20.519 5.13333 19.5856 7.4 19.5856 9.66667C13.0523 9 9.18564 5 6.11897 1.26667C5.98564 1.13333 5.85231 1 5.58564 1C5.31897 1 5.18564 1.13333 5.05231 1.26667C3.18564 4.46667 3.58564 7.4 3.98564 9C4.25231 10.0667 4.65231 10.8667 5.18564 11.6667C4.65231 11.4 3.98564 11 3.45231 10.6C3.31897 10.3333 3.05231 10.3333 2.78564 10.4667C2.51897 10.6 2.38564 10.8667 2.38564 11.1333C2.38564 15 4.91897 17.5333 7.18564 18.8667C6.65231 18.7333 6.25231 18.6 5.85231 18.4667C5.58564 18.3333 5.31897 18.4667 5.18564 18.6C4.91897 18.7333 4.91897 19 5.05231 19.2667C6.25231 22.0667 8.91897 24.0667 11.8523 24.7333C9.18564 26.4667 5.05231 27.4 1.71897 27C1.31897 27 1.05231 27.1333 1.05231 27.4C0.918974 27.6667 1.05231 28.0667 1.31897 28.2ZM25.719 26.6C19.319 30.8667 11.719 31.4 4.51897 28.3333C8.11897 28.0667 11.8523 26.7333 13.9856 24.7333C14.119 24.6 14.2523 24.3333 14.119 24.0667C13.9856 23.8 13.719 23.6667 13.4523 23.6667C10.7856 23.6667 8.25231 22.2 6.78564 20.0667C7.98564 20.2 9.05231 20.2 9.85231 19.5333C10.119 19.4 10.2523 19.1333 10.119 18.8667C10.119 18.6 9.85231 18.3333 9.58564 18.3333C8.65231 18.2 4.38564 16.3333 3.58564 12.3333C4.65231 12.8667 5.85231 13.2667 6.91897 13C7.18564 13 7.45231 12.7333 7.45231 12.4667C7.58564 12.2 7.45231 11.9333 7.18564 11.8C6.38564 11.2667 5.58564 9.93333 5.18564 8.46667C4.91897 7.4 4.65231 5.26667 5.71897 2.86667C8.78564 6.6 13.1856 10.6 20.2523 11C20.3856 11 20.6523 11 20.7856 10.6C20.919 10.4667 20.919 10.2 20.919 10.0667C20.7856 7.93333 21.5856 5.66667 23.0523 4.2C25.719 1.53333 29.8523 1.4 32.7856 3.66667C32.919 3.8 33.1856 3.8 33.319 3.8C33.319 3.8 34.7856 3.53333 36.2523 2.86667C35.8523 3.8 35.1856 4.6 34.6523 4.86667C34.3856 5 34.2523 5.4 34.2523 5.66667C34.3856 5.93333 34.6523 6.2 34.919 6.2C35.5856 6.2 36.519 5.93333 37.319 5.66667C37.1659 5.89621 37.0239 6.13672 36.8865 6.36932C36.5451 6.94737 36.2326 7.47651 35.8523 7.66667C35.719 7.8 35.5856 8.06667 35.5856 8.33333C36.3856 14.7333 32.2523 22.2 25.719 26.6Z" fill="white"/>
<path d="M1.31897 28.2L1.57622 27.7713L1.55976 27.7614L1.54258 27.7528L1.31897 28.2ZM26.519 27.6667L26.7963 28.0827L26.519 27.6667ZM37.0523 8.6L36.6988 8.24645L36.5358 8.40938L36.5538 8.6391L37.0523 8.6ZM38.6523 6.2L39.0864 6.44807L39.0933 6.43602L39.0995 6.42361L38.6523 6.2ZM39.5856 4.6L39.9856 4.9L40.0127 4.86393L40.0329 4.82361L39.5856 4.6ZM38.6523 3.66667L38.8759 4.11388V4.11388L38.6523 3.66667ZM38.153 3.89151L38.3528 4.34981L38.153 3.89151ZM37.1856 4.33333L36.7384 4.10973L36.0676 5.45137L37.4092 4.78055L37.1856 4.33333ZM38.2523 1.8L38.7267 1.95811L38.7523 1.88114V1.8H38.2523ZM37.1856 1.13333L36.962 0.68612L36.9291 0.702593L36.8989 0.723718L37.1856 1.13333ZM33.319 2.73333L33.024 3.13703L33.2015 3.26674L33.417 3.22362L33.319 2.73333ZM22.119 3.53333L21.7654 3.17978L22.119 3.53333ZM19.5856 9.66667L19.5349 10.1641L20.0856 10.2203V9.66667H19.5856ZM6.11897 1.26667L6.50534 0.949297L6.48982 0.930403L6.47253 0.913113L6.11897 1.26667ZM5.05231 1.26667L4.69875 0.913113L4.65301 0.958855L4.62042 1.01473L5.05231 1.26667ZM3.98564 9L4.47071 8.87873L3.98564 9ZM5.18564 11.6667L4.96203 12.1139L6.64604 12.9559L5.60167 11.3893L5.18564 11.6667ZM3.45231 10.6L3.00509 10.8236L3.05788 10.9292L3.15231 11L3.45231 10.6ZM2.78564 10.4667L2.56203 10.0195L2.78564 10.4667ZM7.18564 18.8667L7.06437 19.3517L7.43915 18.4357L7.18564 18.8667ZM5.85231 18.4667L5.6287 18.9139L5.66048 18.9298L5.69419 18.941L5.85231 18.4667ZM5.18564 18.6L5.40925 19.0472L5.48182 19.0109L5.53919 18.9536L5.18564 18.6ZM5.05231 19.2667L5.51188 19.0697L5.50609 19.0562L5.49952 19.0431L5.05231 19.2667ZM11.8523 24.7333L12.1248 25.1526L13.1166 24.5079L11.9631 24.2458L11.8523 24.7333ZM1.71897 27L1.77855 26.5036L1.74887 26.5H1.71897V27ZM1.05231 27.4L1.49952 27.6236L1.55231 27.518V27.4H1.05231ZM4.51897 28.3333L4.48204 27.8347L4.32304 28.7933L4.51897 28.3333ZM25.719 26.6L25.9963 27.016L25.9983 27.0147L25.719 26.6ZM13.9856 24.7333L14.3276 25.0981L14.3335 25.0926L14.3392 25.0869L13.9856 24.7333ZM6.78564 20.0667L6.84086 19.5697L5.75422 19.449L6.37362 20.3499L6.78564 20.0667ZM9.85231 19.5333L9.6287 19.0861L9.5768 19.1121L9.53222 19.1492L9.85231 19.5333ZM10.119 18.8667H9.61897V18.9847L9.67176 19.0903L10.119 18.8667ZM9.58564 18.3333L9.51493 18.8283L9.55011 18.8333H9.58564V18.3333ZM3.58564 12.3333L3.80925 11.8861L2.89486 11.4289L3.09535 12.4314L3.58564 12.3333ZM6.91897 13V12.5H6.85742L6.79771 12.5149L6.91897 13ZM7.45231 12.4667L7.00509 12.2431L6.95231 12.3486V12.4667H7.45231ZM7.18564 11.8L6.90829 12.216L6.93419 12.2333L6.96203 12.2472L7.18564 11.8ZM5.18564 8.46667L4.70046 8.58796L4.70326 8.59823L5.18564 8.46667ZM5.71897 2.86667L6.10534 2.5493L5.5911 1.92327L5.26207 2.6636L5.71897 2.86667ZM20.2523 11L20.224 11.4992L20.2382 11.5H20.2523V11ZM20.7856 10.6L20.4321 10.2464L20.3486 10.3299L20.3113 10.4419L20.7856 10.6ZM20.919 10.0667H21.419V10.0511L21.418 10.0355L20.919 10.0667ZM23.0523 4.2L22.6988 3.84645V3.84645L23.0523 4.2ZM32.7856 3.66667L33.1392 3.31311L33.1166 3.29054L33.0914 3.27102L32.7856 3.66667ZM33.319 3.8V4.3H33.3641L33.4084 4.29194L33.319 3.8ZM36.2523 2.86667L36.7119 3.06363L37.2202 1.87747L36.0454 2.41148L36.2523 2.86667ZM34.6523 4.86667L34.8759 5.31388L34.6523 4.86667ZM34.2523 5.66667H33.7523V5.7847L33.8051 5.89027L34.2523 5.66667ZM37.319 5.66667L37.735 5.94402L38.5433 4.7315L37.1609 5.19233L37.319 5.66667ZM36.8865 6.36932L37.317 6.62359L37.3171 6.62358L36.8865 6.36932ZM35.8523 7.66667L35.6287 7.21945L35.5561 7.25574L35.4987 7.31312L35.8523 7.66667ZM35.5856 8.33333H35.0856V8.36446L35.0895 8.39535L35.5856 8.33333ZM13.719 31.1667C9.67303 31.1667 5.49579 30.123 1.57622 27.7713L1.06173 28.6287C5.14216 31.077 9.49825 32.1667 13.719 32.1667V31.1667ZM26.2416 27.2506C22.3198 29.8652 18.0157 31.1667 13.719 31.1667V32.1667C18.2223 32.1667 22.7181 30.8015 26.7963 28.0827L26.2416 27.2506ZM36.5538 8.6391C37.07 15.2201 32.926 22.7944 26.2416 27.2506L26.7963 28.0827C33.7119 23.4723 38.1013 15.5799 37.5508 8.5609L36.5538 8.6391ZM38.2182 5.95193C37.6707 6.91007 37.1735 7.77173 36.6988 8.24645L37.4059 8.95355C37.9978 8.3616 38.5673 7.3566 39.0864 6.44807L38.2182 5.95193ZM39.1856 4.3C38.7549 4.87434 38.47 5.44651 38.2051 5.97639L39.0995 6.42361C39.3679 5.88682 39.6164 5.39232 39.9856 4.9L39.1856 4.3ZM39.0988 4.15355C39.171 4.22575 39.1727 4.26127 39.1728 4.26202C39.1736 4.2682 39.1763 4.30073 39.1384 4.37639L40.0329 4.82361C40.1284 4.6326 40.1977 4.39847 40.1651 4.13798C40.1319 3.87207 40.0003 3.64092 39.8059 3.44645L39.0988 4.15355ZM38.8759 4.11388C38.9516 4.07605 38.9841 4.0787 38.9903 4.07947C38.991 4.07957 39.0266 4.08136 39.0988 4.15355L39.8059 3.44645C39.6114 3.25197 39.3802 3.12043 39.1143 3.08719C38.8538 3.05463 38.6197 3.12395 38.4287 3.21945L38.8759 4.11388ZM38.3528 4.34981C38.5564 4.26104 38.7507 4.17649 38.8759 4.11388L38.4287 3.21945C38.333 3.2673 38.1691 3.33896 37.9531 3.4332L38.3528 4.34981ZM37.4092 4.78055C37.7078 4.63125 38.0536 4.48031 38.3528 4.34981L37.9531 3.4332C37.6588 3.56152 37.2883 3.723 36.962 3.88612L37.4092 4.78055ZM37.778 1.64189C37.5203 2.41491 37.1302 3.32614 36.7384 4.10973L37.6329 4.55694C38.0411 3.74053 38.451 2.78509 38.7267 1.95811L37.778 1.64189ZM37.762 1.58055C37.7666 1.58281 37.7571 1.57845 37.7461 1.5644C37.7361 1.55175 37.7355 1.54452 37.7382 1.55403C37.7416 1.56572 37.7463 1.58968 37.7492 1.63427C37.7521 1.67998 37.7523 1.73028 37.7523 1.8H38.7523C38.7523 1.68388 38.756 1.47607 38.6997 1.27931C38.6338 1.04861 38.486 0.8245 38.2092 0.68612L37.762 1.58055ZM37.4092 1.58055C37.5352 1.5176 37.6361 1.5176 37.762 1.58055L38.2092 0.68612C37.8018 0.482405 37.3695 0.482405 36.962 0.68612L37.4092 1.58055ZM33.417 3.22362C34.1159 3.08385 36.0588 2.53248 37.4724 1.54295L36.8989 0.723718C35.6459 1.60086 33.8554 2.11615 33.2209 2.24304L33.417 3.22362ZM22.4725 3.88689C25.3587 1.00069 29.7491 0.74389 33.024 3.13703L33.614 2.32964C29.9555 -0.34389 25.0126 -0.0673577 21.7654 3.17978L22.4725 3.88689ZM20.0856 9.66667C20.0856 7.53167 20.967 5.39246 22.4725 3.88689L21.7654 3.17978C20.071 4.87421 19.0856 7.26833 19.0856 9.66667H20.0856ZM5.73261 1.58404C8.81516 5.33671 12.7927 9.47611 19.5349 10.1641L19.6364 9.16925C13.3119 8.52389 9.55612 4.66329 6.50534 0.949297L5.73261 1.58404ZM5.58564 1.5C5.60984 1.5 5.6226 1.50291 5.62791 1.5044C5.63303 1.50583 5.63796 1.50782 5.64506 1.51208C5.6672 1.52536 5.69219 1.54699 5.76542 1.62022L6.47253 0.913113C6.33394 0.774527 6.07215 0.5 5.58564 0.5V1.5ZM5.40586 1.62022C5.47909 1.54699 5.50408 1.52536 5.52622 1.51208C5.53332 1.50782 5.53825 1.50583 5.54337 1.5044C5.54868 1.50291 5.56145 1.5 5.58564 1.5V0.5C5.09913 0.5 4.83734 0.774527 4.69875 0.913113L5.40586 1.62022ZM4.47071 8.87873C4.08721 7.34474 3.70915 4.56154 5.4842 1.5186L4.62042 1.01473C2.66213 4.37179 3.08407 7.45526 3.50057 9.12127L4.47071 8.87873ZM5.60167 11.3893C5.09388 10.6276 4.72099 9.87983 4.47071 8.87873L3.50057 9.12127C3.78363 10.2535 4.21074 11.1057 4.76962 11.944L5.60167 11.3893ZM3.15231 11C3.71225 11.42 4.40496 11.8353 4.96203 12.1139L5.40925 11.2195C4.89965 10.9647 4.25903 10.58 3.75231 10.2L3.15231 11ZM3.00925 10.9139C3.04715 10.8949 3.07565 10.8855 3.09369 10.8815C3.1119 10.8774 3.11204 10.8803 3.09826 10.8783C3.08177 10.876 3.05653 10.868 3.03219 10.85C3.00848 10.8325 3.0021 10.8176 3.00509 10.8236L3.89952 10.3764C3.76356 10.1045 3.5276 9.92949 3.23969 9.88836C2.98419 9.85186 2.74438 9.92828 2.56203 10.0195L3.00925 10.9139ZM2.88564 11.1333C2.88564 11.0283 2.93543 10.9508 3.00925 10.9139L2.56203 10.0195C2.10252 10.2492 1.88564 10.705 1.88564 11.1333H2.88564ZM7.43915 18.4357C5.25278 17.1496 2.88564 14.7524 2.88564 11.1333H1.88564C1.88564 15.2476 4.58517 17.9171 6.93213 19.2976L7.43915 18.4357ZM5.69419 18.941C6.09487 19.0746 6.51076 19.2133 7.06437 19.3517L7.30691 18.3816C6.79386 18.2533 6.40975 18.1254 6.01042 17.9923L5.69419 18.941ZM5.53919 18.9536C5.54405 18.9487 5.55423 18.94 5.56853 18.9313C5.58258 18.9227 5.5958 18.9171 5.60633 18.9141C5.61642 18.9112 5.62142 18.9114 5.6222 18.9115C5.62262 18.9115 5.62286 18.9115 5.62326 18.9116C5.62363 18.9117 5.62538 18.9122 5.6287 18.9139L6.07591 18.0195C5.53766 17.7503 5.04397 18.0346 4.83209 18.2464L5.53919 18.9536ZM5.49952 19.0431C5.48057 19.0052 5.47118 18.9767 5.46711 18.9586C5.463 18.9404 5.46592 18.9403 5.46395 18.954C5.46159 18.9705 5.45363 18.9958 5.43565 19.0201C5.41811 19.0438 5.40326 19.0502 5.40925 19.0472L4.96203 18.1528C4.69011 18.2887 4.51513 18.5247 4.474 18.8126C4.4375 19.0681 4.51392 19.3079 4.60509 19.4903L5.49952 19.0431ZM11.9631 24.2458C9.16574 23.61 6.64113 21.7046 5.51188 19.0697L4.59273 19.4636C5.86348 22.4287 8.67221 24.5233 11.7415 25.2209L11.9631 24.2458ZM1.6594 27.4964C5.10348 27.9097 9.35531 26.9527 12.1248 25.1526L11.5798 24.3141C9.01597 25.9806 5.00113 26.8903 1.77855 26.5036L1.6594 27.4964ZM1.55231 27.4C1.55231 27.4205 1.54599 27.4552 1.52422 27.49C1.50398 27.5224 1.48328 27.5344 1.48371 27.5341C1.48557 27.5331 1.50371 27.5236 1.54653 27.5148C1.58849 27.5062 1.6457 27.5 1.71897 27.5V26.5C1.47569 26.5 1.21036 26.5386 0.987571 26.6659C0.737666 26.8087 0.552307 27.0627 0.552307 27.4H1.55231ZM1.54258 27.7528C1.55036 27.7567 1.5471 27.7573 1.53781 27.7456C1.5285 27.7338 1.51781 27.7154 1.50998 27.6919C1.50215 27.6684 1.49964 27.6472 1.50004 27.6323C1.50045 27.6173 1.50341 27.6158 1.49952 27.6236L0.605094 27.1764C0.465703 27.4552 0.479917 27.764 0.561299 28.0081C0.642681 28.2523 0.816585 28.5078 1.09537 28.6472L1.54258 27.7528ZM4.32304 28.7933C11.6682 31.9218 19.4473 31.3821 25.9963 27.016L25.4416 26.184C19.1907 30.3513 11.7698 30.8782 4.71491 27.8733L4.32304 28.7933ZM13.6437 24.3686C11.6203 26.2655 8.01055 27.5733 4.48204 27.8347L4.55591 28.832C8.2274 28.56 12.0844 27.2012 14.3276 25.0981L13.6437 24.3686ZM13.6718 24.2903C13.6734 24.2936 13.6739 24.2953 13.674 24.2957C13.6741 24.2961 13.6742 24.2964 13.6742 24.2968C13.6742 24.2975 13.6744 24.3026 13.6715 24.3126C13.6685 24.3232 13.6629 24.3364 13.6544 24.3504C13.6457 24.3647 13.6369 24.3749 13.6321 24.3798L14.3392 25.0869C14.5511 24.875 14.8353 24.3813 14.5662 23.8431L13.6718 24.2903ZM13.4523 24.1667C13.5573 24.1667 13.6349 24.2165 13.6718 24.2903L14.5662 23.8431C14.3364 23.3835 13.8806 23.1667 13.4523 23.1667V24.1667ZM6.37362 20.3499C7.92525 22.6068 10.6068 24.1667 13.4523 24.1667V23.1667C10.9644 23.1667 8.57937 21.7932 7.19766 19.7834L6.37362 20.3499ZM9.53222 19.1492C8.91001 19.6677 8.0456 19.7036 6.84086 19.5697L6.73042 20.5636C7.92568 20.6964 9.19461 20.7323 10.1724 19.9174L9.53222 19.1492ZM9.67176 19.0903C9.67476 19.0963 9.6717 19.0925 9.67132 19.0807C9.67094 19.0691 9.6735 19.059 9.67607 19.053C9.67832 19.0478 9.67872 19.0498 9.67167 19.0569C9.66456 19.064 9.65098 19.075 9.6287 19.0861L10.0759 19.9805C10.2956 19.8707 10.4907 19.6907 10.5952 19.447C10.704 19.1932 10.6977 18.906 10.5662 18.6431L9.67176 19.0903ZM9.58564 18.8333C9.56908 18.8333 9.56386 18.8294 9.57003 18.8323C9.57623 18.8352 9.58714 18.8419 9.59875 18.8536C9.61036 18.8652 9.61716 18.8761 9.62005 18.8823C9.62293 18.8884 9.61897 18.8832 9.61897 18.8667H10.619C10.619 18.5707 10.476 18.3166 10.3059 18.1464C10.1357 17.9763 9.88159 17.8333 9.58564 17.8333V18.8333ZM3.09535 12.4314C3.52707 14.59 4.88987 16.1522 6.23153 17.1802C6.90441 17.6958 7.58133 18.0846 8.15374 18.3544C8.71409 18.6184 9.20858 18.7845 9.51493 18.8283L9.65635 17.8384C9.49604 17.8155 9.10719 17.6982 8.58004 17.4498C8.06495 17.207 7.4502 16.8542 6.83975 16.3864C5.61474 15.4478 4.44421 14.0767 4.07593 12.2353L3.09535 12.4314ZM6.79771 12.5149C5.91679 12.7352 4.8591 12.411 3.80925 11.8861L3.36203 12.7805C4.44551 13.3223 5.78783 13.7982 7.04024 13.4851L6.79771 12.5149ZM6.95231 12.4667C6.95231 12.4501 6.95626 12.4449 6.95338 12.4511C6.95049 12.4573 6.9437 12.4682 6.93209 12.4798C6.92048 12.4914 6.90956 12.4982 6.90336 12.5011C6.89719 12.504 6.90241 12.5 6.91897 12.5V13.5C7.21492 13.5 7.46902 13.3571 7.63919 13.1869C7.80937 13.0167 7.95231 12.7626 7.95231 12.4667H6.95231ZM6.96203 12.2472C6.98431 12.2584 6.99789 12.2694 7.005 12.2765C7.01205 12.2835 7.01165 12.2855 7.0094 12.2803C7.00684 12.2743 7.00428 12.2643 7.00465 12.2526C7.00503 12.2409 7.00809 12.2371 7.00509 12.2431L7.89952 12.6903C8.03102 12.4273 8.03731 12.1402 7.92855 11.8864C7.82408 11.6426 7.62895 11.4626 7.40925 11.3528L6.96203 12.2472ZM4.70326 8.59823C4.91478 9.37381 5.23236 10.1164 5.60689 10.7406C5.97712 11.3576 6.42318 11.8926 6.90829 12.216L7.46299 11.384C7.1481 11.174 6.79416 10.7757 6.46439 10.2261C6.13893 9.68365 5.8565 9.02619 5.66802 8.33511L4.70326 8.59823ZM5.26207 2.6636C4.1363 5.19658 4.41644 7.4514 4.70057 8.58793L5.67071 8.3454C5.42151 7.3486 5.16832 5.33675 6.17588 3.06974L5.26207 2.6636ZM20.2806 10.5008C13.4178 10.1123 9.13473 6.23725 6.10534 2.5493L5.33261 3.18404C8.43655 6.96275 12.9535 11.0877 20.224 11.4992L20.2806 10.5008ZM20.3113 10.4419C20.2938 10.4945 20.2787 10.5136 20.2772 10.5154C20.2769 10.5157 20.2832 10.5089 20.2954 10.5028C20.3057 10.4976 20.3112 10.4976 20.3056 10.4983C20.2974 10.4995 20.2869 10.5 20.2523 10.5V11.5C20.3173 11.5 20.5263 11.5054 20.7426 11.3972C20.9803 11.2784 21.1587 11.0621 21.26 10.7581L20.3113 10.4419ZM20.419 10.0667C20.419 10.1362 20.4181 10.1973 20.4091 10.2511C20.4071 10.263 20.4051 10.2723 20.4032 10.2793C20.4023 10.2827 20.4015 10.2853 20.4009 10.2871C20.4006 10.288 20.4004 10.2887 20.4002 10.2892C20.4 10.2896 20.4 10.2899 20.4 10.2899C20.4 10.2899 20.4001 10.2896 20.4003 10.2891C20.4005 10.2886 20.4008 10.2879 20.4013 10.287C20.4023 10.2851 20.4039 10.2821 20.4063 10.2783C20.411 10.2707 20.4192 10.2593 20.4321 10.2464L21.1392 10.9536C21.3167 10.776 21.3731 10.5502 21.3955 10.4155C21.4199 10.2694 21.419 10.1305 21.419 10.0667H20.419ZM22.6988 3.84645C21.1228 5.42236 20.2784 7.83274 20.4199 10.0979L21.418 10.0355C21.2929 8.03392 22.0484 5.91098 23.4059 4.55355L22.6988 3.84645ZM33.0914 3.27102C29.9701 0.85915 25.5531 0.99212 22.6988 3.84645L23.4059 4.55355C25.8849 2.07455 29.7345 1.94085 32.4799 4.06231L33.0914 3.27102ZM33.319 3.3C33.2494 3.3 33.1883 3.29911 33.1345 3.29014C33.1226 3.28816 33.1133 3.2861 33.1063 3.28425C33.1029 3.28334 33.1003 3.28255 33.0985 3.28194C33.0976 3.28165 33.0969 3.28141 33.0965 3.28124C33.096 3.28107 33.0958 3.28098 33.0958 3.28098C33.0958 3.28098 33.096 3.28108 33.0965 3.2813C33.097 3.28151 33.0977 3.28186 33.0987 3.28234C33.1006 3.28331 33.1035 3.28491 33.1073 3.28729C33.1149 3.29204 33.1264 3.30027 33.1392 3.31311L32.4321 4.02022C32.6096 4.19773 32.8354 4.25408 32.9701 4.27653C33.1163 4.30089 33.2552 4.3 33.319 4.3V3.3ZM36.0454 2.41148C35.3441 2.73025 34.638 2.95535 34.1041 3.10095C33.838 3.17351 33.6169 3.22576 33.4633 3.25967C33.3865 3.27662 33.3267 3.28896 33.2868 3.29695C33.2668 3.30094 33.2518 3.30384 33.2422 3.30569C33.2373 3.30661 33.2338 3.30726 33.2317 3.30766C33.2307 3.30786 33.2299 3.30799 33.2296 3.30806C33.2294 3.30809 33.2293 3.30811 33.2293 3.30811C33.2293 3.30811 33.2293 3.30811 33.2293 3.3081C33.2294 3.3081 33.2294 3.30809 33.2294 3.30809C33.2295 3.30808 33.2295 3.30807 33.319 3.8C33.4084 4.29194 33.4085 4.29192 33.4086 4.29191C33.4086 4.2919 33.4087 4.29189 33.4087 4.29188C33.4089 4.29185 33.409 4.29183 33.4092 4.29179C33.4095 4.29173 33.41 4.29165 33.4105 4.29155C33.4116 4.29136 33.413 4.2911 33.4147 4.29077C33.4182 4.29012 33.4232 4.28919 33.4294 4.288C33.442 4.28561 33.4599 4.28213 33.4829 4.27753C33.5289 4.26833 33.5952 4.25463 33.6789 4.23616C33.8461 4.19924 34.0832 4.14316 34.3672 4.06572C34.9333 3.91132 35.6938 3.66975 36.4592 3.32185L36.0454 2.41148ZM34.8759 5.31388C35.232 5.13586 35.585 4.80915 35.8909 4.43127C36.203 4.04583 36.4936 3.57297 36.7119 3.06363L35.7927 2.66971C35.611 3.0937 35.3683 3.4875 35.1137 3.80207C34.8529 4.12419 34.606 4.33081 34.4287 4.41945L34.8759 5.31388ZM34.7523 5.66667C34.7523 5.60588 34.7699 5.50821 34.8092 5.41974C34.8513 5.32498 34.887 5.30835 34.8759 5.31388L34.4287 4.41945C34.151 4.55832 33.9866 4.80835 33.8954 5.0136C33.8014 5.22512 33.7523 5.46079 33.7523 5.66667H34.7523ZM34.919 5.7C34.9499 5.7 34.9283 5.71138 34.861 5.6537C34.7994 5.60089 34.7391 5.52227 34.6995 5.44306L33.8051 5.89027C33.8988 6.07773 34.0385 6.26577 34.2102 6.41296C34.3763 6.55529 34.6213 6.7 34.919 6.7V5.7ZM37.1609 5.19233C36.353 5.4616 35.4931 5.7 34.919 5.7V6.7C35.6782 6.7 36.6849 6.40507 37.4771 6.14101L37.1609 5.19233ZM37.3171 6.62358C37.4556 6.38901 37.5908 6.16032 37.735 5.94402L36.903 5.38932C36.7411 5.6321 36.5922 5.88443 36.456 6.11505L37.3171 6.62358ZM36.0759 8.11388C36.3734 7.96513 36.6039 7.70779 36.7864 7.46018C36.9729 7.20728 37.1499 6.90667 37.317 6.62359L36.456 6.11505C36.2818 6.41002 36.1318 6.66301 35.9816 6.86673C35.8275 7.07574 35.7115 7.17805 35.6287 7.21945L36.0759 8.11388ZM36.0856 8.33333C36.0856 8.28044 36.0997 8.21426 36.1285 8.14696C36.1583 8.07752 36.1921 8.034 36.2059 8.02022L35.4987 7.31312C35.278 7.5339 35.0856 7.92539 35.0856 8.33333H36.0856ZM25.9983 27.0147C32.639 22.5424 36.9117 14.9106 36.0818 8.27132L35.0895 8.39535C35.8596 14.5561 31.8656 21.8576 25.4397 26.1853L25.9983 27.0147Z" fill="white"/>
</svg>
