<svg width="42" height="32" viewBox="0 0 42 32" fill="none" xmlns="http://www.w3.org/2000/svg">
<path fill-rule="evenodd" clip-rule="evenodd" d="M15 30.3998C17 30.5331 19 30.6665 21 30.6665C23 30.6665 25 30.5331 27 30.3998L35.8 29.5998C38.7333 29.3331 41 26.9331 41 23.9998V7.9998C41 5.06647 38.7333 2.66647 35.8 2.3998L27 1.5998C23.1333 1.1998 18.8667 1.1998 15 1.5998L6.2 2.3998C3.26667 2.66647 1 5.06647 1 7.9998V23.9998C1 26.9331 3.26667 29.3331 6.2 29.5998L15 30.3998ZM15.1333 2.93314C17 2.7998 19 2.66647 21 2.66647C23 2.66647 25 2.7998 26.8667 2.93314L35.6667 3.73314C37.9333 3.86647 39.6667 5.73314 39.6667 7.9998V23.9998C39.6667 26.2665 37.9333 28.1331 35.6667 28.2665L26.8667 29.0665C23.1333 29.3331 18.8667 29.3331 15.1333 29.0665L6.33333 28.2665C4.06667 28.1331 2.33333 26.2665 2.33333 23.9998V7.9998C2.33333 5.73314 4.06667 3.86647 6.33333 3.73314L15.1333 2.93314Z" fill="white"/>
<path d="M15 30.3998L14.9547 30.8979L14.9667 30.8987L15 30.3998ZM27 30.3998L27.0333 30.8988L27.0453 30.8978L27 30.3998ZM35.8 29.5998L35.7547 29.1019L35.8 29.5998ZM35.8 2.3998L35.7547 2.89775L35.8 2.3998ZM27 1.5998L26.9485 2.09719L26.9547 2.09775L27 1.5998ZM15 1.5998L15.0453 2.09779L15.0514 2.09715L15 1.5998ZM6.2 2.3998L6.24527 2.89775L6.2 2.3998ZM6.2 29.5998L6.24527 29.1019L6.2 29.5998ZM15.1333 2.93314L15.0977 2.43432L15.0881 2.43519L15.1333 2.93314ZM26.8667 2.93314L26.9119 2.4351L26.9023 2.43441L26.8667 2.93314ZM35.6667 3.73314L35.6214 4.23108L35.6293 4.23181L35.6373 4.23228L35.6667 3.73314ZM35.6667 28.2665L35.6373 27.7673L35.6293 27.7678L35.6214 27.7685L35.6667 28.2665ZM26.8667 29.0665L26.9023 29.5653L26.9119 29.5644L26.8667 29.0665ZM15.1333 29.0665L15.0881 29.5645L15.0977 29.5652L15.1333 29.0665ZM6.33333 28.2665L6.3786 27.7685L6.37066 27.7678L6.36269 27.7673L6.33333 28.2665ZM6.33333 3.73314L6.36269 4.23228L6.37066 4.23181L6.3786 4.23108L6.33333 3.73314ZM21 30.1665C19.0194 30.1665 17.0361 30.0344 15.0333 29.9009L14.9667 30.8987C16.9639 31.0318 18.9806 31.1665 21 31.1665V30.1665ZM26.9667 29.9009C24.9639 30.0344 22.9806 30.1665 21 30.1665V31.1665C23.0194 31.1665 25.0361 31.0318 27.0333 30.8987L26.9667 29.9009ZM35.7547 29.1019L26.9547 29.9019L27.0453 30.8978L35.8453 30.0977L35.7547 29.1019ZM40.5 23.9998C40.5 26.6648 38.4403 28.8577 35.7547 29.1019L35.8453 30.0977C39.0263 29.8086 41.5 27.2015 41.5 23.9998H40.5ZM40.5 7.9998V23.9998H41.5V7.9998H40.5ZM35.7547 2.89775C38.4403 3.1419 40.5 5.33482 40.5 7.9998H41.5C41.5 4.79812 39.0263 2.19104 35.8453 1.90186L35.7547 2.89775ZM26.9547 2.09775L35.7547 2.89775L35.8453 1.90186L27.0453 1.10186L26.9547 2.09775ZM15.0514 2.09715C18.8839 1.70069 23.1161 1.70069 26.9486 2.09715L27.0514 1.10246C23.1506 0.69892 18.8494 0.69892 14.9486 1.10246L15.0514 2.09715ZM6.24527 2.89775L15.0453 2.09775L14.9547 1.10186L6.15473 1.90186L6.24527 2.89775ZM1.5 7.9998C1.5 5.33482 3.55965 3.1419 6.24527 2.89775L6.15473 1.90186C2.97368 2.19104 0.5 4.79812 0.5 7.9998H1.5ZM1.5 23.9998V7.9998H0.5V23.9998H1.5ZM6.24527 29.1019C3.55965 28.8577 1.5 26.6648 1.5 23.9998H0.5C0.5 27.2015 2.97368 29.8086 6.15473 30.0977L6.24527 29.1019ZM15.0453 29.9019L6.24527 29.1019L6.15473 30.0977L14.9547 30.8978L15.0453 29.9019ZM21 2.16647C18.9802 2.16647 16.964 2.3011 15.0977 2.43441L15.169 3.43187C17.036 3.29851 19.0198 3.16647 21 3.16647V2.16647ZM26.9023 2.43441C25.036 2.3011 23.0198 2.16647 21 2.16647V3.16647C22.9802 3.16647 24.964 3.29851 26.831 3.43187L26.9023 2.43441ZM35.7119 3.23519L26.9119 2.43519L26.8214 3.43108L35.6214 4.23108L35.7119 3.23519ZM40.1667 7.9998C40.1667 5.47236 38.2309 3.38311 35.696 3.234L35.6373 4.23228C37.6357 4.34983 39.1667 5.99391 39.1667 7.9998H40.1667ZM40.1667 23.9998V7.9998H39.1667V23.9998H40.1667ZM35.696 28.7656C38.2309 28.6165 40.1667 26.5272 40.1667 23.9998H39.1667C39.1667 26.0057 37.6357 27.6498 35.6373 27.7673L35.696 28.7656ZM26.9119 29.5644L35.7119 28.7644L35.6214 27.7685L26.8214 28.5685L26.9119 29.5644ZM15.0977 29.5652C18.8548 29.8336 23.1452 29.8336 26.9023 29.5652L26.831 28.5677C23.1214 28.8327 18.8786 28.8327 15.169 28.5677L15.0977 29.5652ZM6.28807 28.7644L15.0881 29.5644L15.1786 28.5685L6.3786 27.7685L6.28807 28.7644ZM1.83333 23.9998C1.83333 26.5272 3.76908 28.6165 6.30397 28.7656L6.36269 27.7673C4.36425 27.6498 2.83333 26.0057 2.83333 23.9998H1.83333ZM1.83333 7.9998V23.9998H2.83333V7.9998H1.83333ZM6.30397 3.234C3.76908 3.38311 1.83333 5.47236 1.83333 7.9998H2.83333C2.83333 5.99391 4.36425 4.34983 6.36269 4.23228L6.30397 3.234ZM15.0881 2.43519L6.28807 3.23519L6.3786 4.23108L15.1786 3.43108L15.0881 2.43519Z" fill="white"/>
<path fill-rule="evenodd" clip-rule="evenodd" d="M15.9333 22.5332C16.0666 22.6665 16.2 22.6665 16.3333 22.6665C16.4666 22.6665 16.6 22.6665 16.6 22.5332L28.6 15.8665C28.8666 15.7332 29 15.4665 29 15.3332C29 15.1999 28.8666 14.9332 28.6 14.7999L16.6 8.1332C16.3333 7.99987 16.2 7.99987 15.9333 8.1332C15.8 8.26654 15.6666 8.39987 15.6666 8.66654V21.9999C15.6666 22.1332 15.6666 22.3999 15.9333 22.5332ZM17 20.7999V9.7332L27 15.1999L17 20.7999Z" fill="white"/>
<path d="M15.9333 22.5332L16.2868 22.1796L16.2295 22.1223L16.1569 22.086L15.9333 22.5332ZM16.6 22.5332L16.3571 22.0961L16.1 22.239V22.5332H16.6ZM28.6 15.8665L28.3764 15.4193L28.3666 15.4242L28.3571 15.4295L28.6 15.8665ZM28.6 14.7999L28.3571 15.2369L28.3666 15.2422L28.3764 15.2471L28.6 14.7999ZM16.6 8.1332L16.8428 7.69612L16.8333 7.69085L16.8236 7.68599L16.6 8.1332ZM15.9333 8.1332L15.7097 7.68599L15.6371 7.72228L15.5797 7.77965L15.9333 8.1332ZM17 9.7332L17.2398 9.29448L16.5 8.89004V9.7332H17ZM17 20.7999H16.5V21.6529L17.2443 21.2361L17 20.7999ZM27 15.1999L27.2443 15.6361L28.0327 15.1946L27.2398 14.7611L27 15.1999ZM16.3333 22.1665C16.316 22.1665 16.3032 22.1665 16.2911 22.1663C16.2794 22.1662 16.271 22.1658 16.2645 22.1654C16.2515 22.1646 16.25 22.1636 16.2546 22.1648C16.2603 22.1662 16.2693 22.1693 16.2784 22.1745C16.2874 22.1796 16.2901 22.183 16.2868 22.1796L15.5797 22.8868C15.8685 23.1755 16.1925 23.1665 16.3333 23.1665V22.1665ZM16.1 22.5332C16.1 22.4801 16.1149 22.39 16.1824 22.3033C16.2465 22.2209 16.3223 22.1876 16.3585 22.1755C16.3918 22.1644 16.4108 22.1647 16.3979 22.1656C16.3863 22.1663 16.3702 22.1665 16.3333 22.1665V23.1665C16.3716 23.1665 16.531 23.1721 16.6747 23.1242C16.7609 23.0955 16.8785 23.0372 16.9717 22.9173C17.0683 22.793 17.1 22.653 17.1 22.5332H16.1ZM28.3571 15.4295L16.3571 22.0961L16.8428 22.9703L28.8428 16.3036L28.3571 15.4295ZM28.5 15.3332C28.5 15.3096 28.5027 15.2941 28.5039 15.2885C28.5052 15.2821 28.5061 15.2804 28.5051 15.2832C28.5029 15.2892 28.4965 15.3036 28.4839 15.3225C28.4581 15.3612 28.4207 15.3971 28.3764 15.4193L28.8236 16.3138C29.0459 16.2026 29.2085 16.0385 29.316 15.8772C29.4143 15.7297 29.5 15.5333 29.5 15.3332H28.5ZM28.3764 15.2471C28.4207 15.2693 28.4581 15.3052 28.4839 15.3439C28.4965 15.3628 28.5029 15.3772 28.5051 15.3832C28.5061 15.386 28.5052 15.3843 28.5039 15.3779C28.5027 15.3723 28.5 15.3568 28.5 15.3332H29.5C29.5 15.1331 29.4143 14.9367 29.316 14.7892C29.2085 14.6279 29.0459 14.4638 28.8236 14.3527L28.3764 15.2471ZM16.3571 8.57028L28.3571 15.2369L28.8428 14.3628L16.8428 7.69612L16.3571 8.57028ZM16.1569 8.58042C16.2674 8.52517 16.2834 8.5332 16.2666 8.5332C16.2498 8.5332 16.2659 8.52517 16.3764 8.58042L16.8236 7.68599C16.6674 7.6079 16.4834 7.5332 16.2666 7.5332C16.0498 7.5332 15.8659 7.6079 15.7097 7.68599L16.1569 8.58042ZM16.1666 8.66654C16.1666 8.64234 16.1695 8.62958 16.171 8.62427C16.1725 8.61914 16.1744 8.61422 16.1787 8.60712C16.192 8.58498 16.2136 8.55999 16.2868 8.48676L15.5797 7.77965C15.4412 7.91824 15.1666 8.18003 15.1666 8.66654H16.1666ZM16.1666 21.9999V8.66654H15.1666V21.9999H16.1666ZM16.1569 22.086C16.152 22.0835 16.1581 22.0859 16.1661 22.0958C16.1733 22.1045 16.1751 22.1107 16.1743 22.1084C16.1732 22.105 16.1705 22.0951 16.1687 22.0754C16.1669 22.0549 16.1666 22.0341 16.1666 21.9999H15.1666C15.1666 22.1086 15.1429 22.697 15.7097 22.9804L16.1569 22.086ZM16.5 9.7332V20.7999H17.5V9.7332H16.5ZM27.2398 14.7611L17.2398 9.29448L16.7601 10.1719L26.7601 15.6386L27.2398 14.7611ZM17.2443 21.2361L27.2443 15.6361L26.7557 14.7636L16.7557 20.3636L17.2443 21.2361Z" fill="white"/>
</svg>
