<?xml version="1.0" standalone="no"?>
<!DOCTYPE svg PUBLIC "-//W3C//DTD SVG 20010904//EN"
 "http://www.w3.org/TR/2001/REC-SVG-20010904/DTD/svg10.dtd">
<svg version="1.0" xmlns="http://www.w3.org/2000/svg"
 width="632.000000pt" height="632.000000pt" viewBox="0 0 632.000000 632.000000"
 preserveAspectRatio="xMidYMid meet">
<metadata>
Created by potrace 1.11, written by Peter Selinger 2001-2013
</metadata>
<g transform="translate(0.000000,632.000000) scale(0.100000,-0.100000)"
fill="#000000" stroke="none">
<path d="M3140 6143 c-2 -351 -1 -636 2 -638 2 -1 59 -5 128 -9 69 -3 136 -8
150 -10 14 -2 47 -7 73 -11 27 -4 57 -8 67 -10 9 -2 33 -6 51 -9 49 -8 66 -12
139 -31 36 -9 72 -18 80 -20 61 -14 247 -85 355 -136 94 -44 269 -141 273
-151 2 -4 10 -8 17 -8 7 0 15 -3 17 -8 2 -4 32 -27 68 -52 36 -24 70 -48 76
-54 6 -6 29 -24 50 -41 89 -69 219 -196 301 -293 26 -31 53 -62 58 -68 6 -6
19 -23 30 -38 11 -16 25 -33 30 -40 47 -52 194 -309 244 -426 13 -30 31 -71
39 -90 9 -19 16 -39 18 -45 1 -5 15 -53 32 -105 29 -93 46 -155 57 -215 3 -16
8 -41 10 -55 43 -217 41 -568 -4 -795 -7 -33 -15 -72 -17 -87 -3 -14 -14 -57
-25 -95 -11 -37 -22 -75 -24 -83 -20 -76 -155 -393 -175 -410 -4 -3 -21 -32
-40 -65 -19 -33 -37 -62 -40 -65 -4 -3 -14 -18 -23 -35 -8 -16 -25 -40 -36
-52 -12 -12 -21 -25 -21 -29 0 -3 -19 -29 -42 -57 -24 -29 -52 -63 -63 -77
-32 -40 -247 -253 -284 -280 -18 -14 -44 -35 -57 -48 -12 -12 -27 -22 -31 -22
-4 0 -23 -14 -40 -31 -18 -16 -33 -27 -33 -24 0 4 -18 -7 -39 -24 -21 -17 -41
-31 -44 -31 -3 0 -25 -13 -49 -29 -136 -92 -474 -237 -618 -266 -8 -2 -16 -4
-17 -5 -4 -3 -3 -3 -93 -23 -41 -9 -86 -19 -100 -21 -14 -3 -25 -5 -25 -6 0
-1 -16 -3 -35 -6 -19 -2 -48 -6 -65 -9 -158 -24 -470 -25 -647 0 -122 17 -157
23 -233 41 -33 8 -67 16 -76 19 -55 12 -166 49 -176 57 -7 6 -13 8 -13 5 0 -3
-35 8 -77 24 -100 38 -383 179 -383 190 0 5 -7 9 -15 9 -8 0 -15 3 -15 8 0 4
-13 13 -28 20 -16 6 -38 21 -50 32 -12 11 -24 20 -27 20 -19 0 -191 147 -305
260 -135 135 -171 175 -212 234 -12 17 -25 33 -28 36 -3 3 -25 34 -48 70 -23
36 -46 70 -51 76 -5 6 -19 30 -30 52 -11 22 -25 44 -31 47 -6 4 -8 10 -5 15 3
5 1 11 -5 15 -22 14 -131 265 -168 390 -26 85 -62 224 -61 233 1 4 0 10 -1 15
-4 13 -6 21 -14 77 -4 30 -10 64 -12 75 -1 11 -6 74 -10 140 -4 66 -8 122 -10
124 -1 1 -166 3 -366 4 l-363 0 1 -109 c1 -108 8 -215 18 -277 3 -18 8 -48 10
-67 9 -61 37 -204 46 -235 5 -16 11 -41 14 -55 5 -27 44 -156 69 -231 32 -94
88 -229 134 -320 26 -52 46 -97 45 -101 -1 -5 3 -8 8 -8 6 0 10 -5 10 -12 0
-10 126 -227 139 -238 3 -3 21 -27 40 -55 121 -176 381 -463 525 -580 28 -22
58 -48 68 -57 10 -10 22 -18 27 -18 5 0 11 -4 13 -8 4 -10 160 -125 227 -167
9 -5 34 -22 56 -36 43 -27 129 -75 235 -131 62 -32 251 -116 300 -133 3 -1 16
-6 30 -12 14 -6 59 -21 100 -33 41 -12 84 -26 95 -31 11 -4 58 -18 105 -29
145 -36 193 -47 247 -55 43 -6 108 -17 138 -22 177 -30 607 -35 795 -8 19 2
55 7 80 10 41 5 170 27 230 39 156 34 435 118 502 152 15 8 29 14 30 14 23 -8
379 173 519 263 63 41 232 160 256 182 6 5 31 26 54 45 100 81 264 240 362
351 69 78 227 286 227 298 0 6 4 11 8 11 5 0 15 12 23 28 8 15 16 29 19 32 29
26 225 404 245 470 4 14 11 30 16 36 5 6 10 19 12 30 5 22 14 50 28 79 6 12
11 27 13 35 2 8 6 22 9 30 6 15 48 164 63 225 4 17 8 35 10 40 1 6 5 26 8 45
4 19 9 42 11 50 2 8 7 34 10 58 3 24 7 53 10 65 34 152 40 661 10 807 -3 14
-7 45 -10 70 -2 25 -7 56 -10 70 -2 14 -9 48 -15 75 -5 28 -12 61 -15 75 -3
14 -8 36 -11 50 -8 39 -44 161 -59 203 -8 20 -12 37 -8 37 4 0 2 5 -5 12 -7 7
-12 21 -12 33 0 12 -4 25 -8 31 -5 5 -24 47 -42 94 -28 72 -108 242 -152 322
-57 104 -215 343 -253 384 -5 6 -21 26 -35 44 -81 107 -319 350 -425 436 -41
32 -75 62 -75 67 0 4 -5 7 -12 7 -7 0 -23 11 -37 24 -28 26 -247 176 -257 176
-3 0 -18 8 -32 19 -55 39 -292 161 -312 161 -5 0 -10 4 -10 10 0 5 -3 9 -7 8
-5 0 -17 2 -28 7 -11 4 -47 19 -80 32 -33 13 -69 28 -80 33 -97 43 -398 124
-555 149 -36 6 -74 13 -85 15 -18 3 -47 7 -180 22 -16 2 -92 6 -167 10 l-138
6 0 -99z"/>
<path d="M979 5315 c-140 -141 -256 -258 -259 -261 -2 -2 243 -252 545 -554
l550 -550 -498 0 -498 0 1 -47 c0 -27 0 -57 -1 -68 0 -11 0 -156 0 -322 l1
-301 1131 -1 1131 0 -4 30 c-3 16 -2 29 1 29 8 0 5 416 -3 435 -3 8 -2 15 2
15 8 0 7 283 -1 304 -3 8 -3 17 0 20 8 8 6 133 -2 146 -3 5 -1 11 5 15 6 4 7
12 1 22 -5 9 -5 28 -2 42 4 14 5 37 1 51 -4 14 -3 37 1 52 4 14 5 28 3 31 -3
3 -5 67 -3 127 0 8 -1 224 -3 480 l-3 465 -362 0 c-199 -1 -365 -3 -368 -6 -7
-7 -8 -106 -6 -546 0 -7 0 -108 1 -224 0 -116 -1 -213 -3 -216 -3 -2 -250 242
-550 542 -300 300 -547 545 -549 545 -3 0 -119 -115 -259 -255z"/>
</g>
</svg>
