<svg version="1.1"
     xmlns="http://www.w3.org/2000/svg" xmlns:xlink="http://www.w3.org/1999/xlink" xmlns:a="http://ns.adobe.com/AdobeSVGViewerExtensions/3.0/"
     x="0px" y="0px" width="90.9px" height="149.9px" viewBox="0 0 90.9 149.9" style="enable-background:new 0 0 90.9 149.9;"
     xml:space="preserve">
<style type="text/css">
    .st0{fill:none;stroke:#000000;stroke-miterlimit:10;}
</style>
<defs>
</defs>
<polygon id="XMLID_50_" class="st0" points="6,149.4 86.6,141.7 90.4,0.5 0.5,7 "/>
<g id="XMLID_15_">
    <path id="XMLID_48_" d="M21.7,38.4l0.2-21.8l1.7,0l-0.2,21.8L21.7,38.4z"/>
    <path id="XMLID_46_" d="M16.7,16.5l12.2,0.1l0,1.7l-12.2-0.1L16.7,16.5z"/>
    <path id="XMLID_44_" d="M16.4,36.7l12.2,0.1l0,1.7l-12.2-0.1L16.4,36.7z"/>
    <path id="XMLID_42_" d="M50.5,36.4c-1.5,1.6-3.6,2.5-5.8,2.5c-2.1,0-4-0.8-5.4-2.3c-2-2-2-3.9-1.9-8.9c0.1-4.9,0.1-6.9,2.1-8.8
        c1.5-1.4,3.4-2.2,5.5-2.2c2.8,0,4.6,1.2,6.5,3.1l-1.1,1.1c-1.6-1.7-2.9-2.7-5.4-2.7c-1.6,0-3,0.6-4.2,1.6C39.2,21.3,39,23,39,27.7
        c-0.1,4.7,0.1,6.4,1.6,8c1.1,1.1,2.6,1.7,4.1,1.7c1.7,0,3.4-0.7,4.6-2.1c1-1.2,1.3-2.4,1.4-4.3l0-2L44.8,29l0-1.5l7.5,0.1l0,3.6
        C52.3,33.4,51.8,35,50.5,36.4z"/>
    <path id="XMLID_40_" d="M73.5,39L61.1,19.9l-0.2,19l-1.7,0L59.4,17l1.7,0l12.4,19.1l0.2-18.9l1.7,0L75.1,39L73.5,39z"/>
    <path id="XMLID_37_" d="M27.3,68c-1.5,1.4-3.4,2.2-5.5,2.2c-2.1,0-4-0.8-5.4-2.3c-2-2-2-3.9-1.9-8.9c0.1-4.9,0.1-6.9,2.1-8.8
        c1.5-1.4,3.4-2.2,5.5-2.2c2.1,0,4,0.8,5.4,2.3c2,2,2,3.9,1.9,8.9C29.4,64.1,29.4,66,27.3,68z M26.2,51.1c-1.1-1.1-2.6-1.7-4.1-1.7
        c-1.6,0-3,0.6-4.2,1.6c-1.6,1.5-1.7,3.2-1.8,7.9c0,4.7,0.1,6.4,1.6,8c1.1,1.1,2.6,1.7,4.1,1.7c1.6,0,3-0.6,4.2-1.6
        c1.6-1.5,1.7-3.2,1.8-7.9C27.9,54.4,27.8,52.7,26.2,51.1z"/>
    <path id="XMLID_34_" d="M50,70.3l-5.1-10.1l-6-0.1l-0.1,10.1l-1.7,0l0.2-21.8l8.3,0.1c3.6,0,6.2,2.1,6.2,5.9c0,3.3-2,5.3-5.1,5.8
        l5.2,10.1L50,70.3z M45.4,49.8L39,49.8l-0.1,8.8l6.4,0.1c2.8,0,4.8-1.4,4.9-4.4C50.2,51.3,48.2,49.9,45.4,49.8z"/>
    <path id="XMLID_32_" d="M60.3,70.4l0.2-21.8l13.3,0.1l0,1.5L62.2,50l-0.1,8.6l9.9,0.1l0,1.5l-9.9-0.1L62,68.9L73.6,69l0,1.5
        L60.3,70.4z"/>
    <path id="XMLID_30_" d="M27.3,99.2c-1.5,1.6-3.6,2.5-5.8,2.5c-2.1,0-4-0.8-5.4-2.3c-2-2-2-3.9-1.9-8.9c0.1-4.9,0.1-6.9,2.1-8.8
        c1.5-1.4,3.4-2.2,5.5-2.2c2.8,0,4.6,1.2,6.5,3.1l-1.1,1.1c-1.6-1.7-2.9-2.7-5.4-2.7c-1.6,0-3,0.6-4.2,1.6c-1.6,1.5-1.7,3.2-1.8,7.9
        c-0.1,4.7,0.1,6.4,1.6,8c1.1,1.1,2.6,1.7,4.1,1.7c1.7,0,3.4-0.7,4.6-2.1c1-1.2,1.3-2.4,1.4-4.3l0-2l-5.9-0.1l0-1.5l7.5,0.1l0,3.6
        C29.1,96.2,28.6,97.8,27.3,99.2z"/>
    <path id="XMLID_27_" d="M49.5,101.8l-5.1-10.1l-6-0.1l-0.1,10.1l-1.7,0l0.2-21.8l8.3,0.1c3.6,0,6.2,2.1,6.2,5.9
        c0,3.3-2,5.3-5.1,5.8l5.2,10.1L49.5,101.8z M44.9,81.4l-6.4-0.1l-0.1,8.8l6.4,0.1c2.8,0,4.8-1.4,4.9-4.4
        C49.7,82.8,47.7,81.4,44.9,81.4z"/>
    <path id="XMLID_24_" d="M73.9,102l-1.8-5.3l-10.2-0.1l-2,5.3l-1.8,0l8.3-21.8l1.5,0l7.8,21.9L73.9,102z M67.1,82.3l-4.7,12.8
        l9.1,0.1L67.1,82.3z"/>
    <path id="XMLID_22_" d="M21.9,133l-1.4,0l-6.9-21.9l1.7,0l5.9,19l6.3-18.9l1.7,0L21.9,133z"/>
    <path id="XMLID_20_" d="M36.3,133.2l0.2-21.8l1.7,0L38,133.2L36.3,133.2z"/>
    <path id="XMLID_18_" d="M49.8,112.9l-0.2,20.4l-1.7,0l0.2-20.4l-6.5-0.1l0-1.5l14.7,0.2l0,1.5L49.8,112.9z"/>
    <path id="XMLID_16_" d="M67.8,124.4l-0.1,9l-1.7,0l0.1-9l-6.3-12.9l1.8,0l5.4,11.1l5.5-11l1.8,0L67.8,124.4z"/>
</g>
</svg>
