<?xml version="1.0" encoding="utf-8"?>
<!-- Generator: Adobe Illustrator 22.0.0, SVG Export Plug-In . SVG Version: 6.00 Build 0)  -->
<svg version="1.1" id="Layer_1" xmlns="http://www.w3.org/2000/svg" xmlns:xlink="http://www.w3.org/1999/xlink" x="0px" y="0px"
	 viewBox="0 0 133 24" style="enable-background:new 0 0 133 24;" xml:space="preserve">
<style type="text/css">
	.st0{fill:#E51813;}
</style>
<path class="st0" d="M122.2,20.6H119v2.8h10v-2.8h-3.5v-4.7c0-3.7,1.1-5.8,4.9-5.8h1.7V6.9h-2.1c-2,0-4.1,1.2-5.1,3.9h-0.1V7.1h-5.8
	V10h3.3V20.6z M103.5,15.3c0-3.1,2.2-5.5,5.1-5.5c2.9,0,5.1,2.4,5.1,5.5c0,3.2-2.2,5.5-5.1,5.5C105.7,20.8,103.5,18.5,103.5,15.3
	 M100,15.3c0,4.9,3.7,8.6,8.6,8.6c4.9,0,8.6-3.7,8.6-8.6s-3.7-8.6-8.6-8.6C103.7,6.7,100,10.4,100,15.3 M93.1,20.6h-3v2.8h8.7v-2.8
	h-2.5V0h-6.1v2.8h2.9V20.6z M88.3,20.6h-2.8V7.1h-6V10h2.8v8.8c-1.4,1.3-3.3,2.1-4.7,2.1c-1.2,0-1.9-0.7-1.9-2.4V7.1h-5.6V10h2.3
	v8.7c0,3.4,1.6,5,4.5,5c1.7,0,3.5-0.7,5.3-2.1v1.9h6V20.6z M52.9,15.3c0-3.2,2.2-5.7,5.1-5.7c3.1,0,5.2,2.2,5.2,5.5
	c0,3.3-2.2,5.8-5.2,5.8C55,20.9,52.9,18.6,52.9,15.3 M69.5,20.6h-3V0h-6.3v2.8h3.1v6.5c-1.6-1.7-3.5-2.6-5.7-2.6
	c-4.6,0-8.1,3.8-8.1,8.7c0,5.8,4.3,8.4,8,8.4c2.3,0,4.1-0.9,5.8-2.7v2.4h6.2V20.6z M3,20.6H0v2.8h9v-2.8H6.2v-8.8c2-1.4,3.4-2,4.6-2
	c1,0,2,0.6,2,2.3v11.3h6v-2.8H16v-8.8c1.6-1.3,3.3-2.1,4.6-2.1c1.2,0,2,0.8,2,2.4v11.4h6v-2.8h-2.8v-9.2c0-2.8-1.7-4.5-4.3-4.5
	c-1.9,0-3.5,0.7-5.9,2.6c-0.7-1.7-2.1-2.6-3.9-2.6c-1.8,0-3.6,0.8-5.5,2.3v-2h-6V10H3V20.6z"/>
<path class="st0" d="M38.4,24c4.8,0,8.7-3.9,8.7-8.7c0-4.8-3.9-8.7-8.7-8.7c-4.8,0-8.7,3.9-8.7,8.7C29.7,20.1,33.6,24,38.4,24"/>
</svg>
