<svg id="Ebene_1" data-name="Ebene 1" xmlns="http://www.w3.org/2000/svg" xmlns:xlink="http://www.w3.org/1999/xlink" viewBox="0 0 200.01 20.01">
  <defs>
    <linearGradient id="linear-gradient" x1="50%" y1="100%" x2="50%" y2="0%" gradientUnits="objectBoundingBox">
      <stop offset="0" stop-color="#fff"/>
      <stop offset="1"/>
    </linearGradient>
    <linearGradient id="linear-gradient-2" x1="50%" y1="0%" x2="50%" y2="100%" gradientUnits="objectBoundingBox">
      <stop offset="0" stop-color="#b3b2b2"/>
      <stop offset="1"/>
    </linearGradient>
  </defs>
  <title>ServiceplanLogoX</title>
  <path d="M12.3,15.9A6.45,6.45,0,0,1,10.7,18a7.22,7.22,0,0,1-2.6,1.4,12.6,12.6,0,0,1-3.5.5,13.34,13.34,0,0,1-2-.1l-2-.3L1,14.8a8.32,8.32,0,0,0,1.9.5,16.21,16.21,0,0,0,2.2.2,2.23,2.23,0,0,0,1.5-.4,1.22,1.22,0,0,0,.6-1A1.44,1.44,0,0,0,6.7,13a5.44,5.44,0,0,0-1.3-.7c-.5-.2-1.1-.4-1.7-.7a5.73,5.73,0,0,1-1.7-1A5,5,0,0,1,.7,9,4.51,4.51,0,0,1,0,6.3,5.75,5.75,0,0,1,2.1,1.7,9.41,9.41,0,0,1,8,0,10.71,10.71,0,0,1,9.7.1c.6.1,1.2.1,1.8.2l-.3,4.6a10.78,10.78,0,0,0-1.7-.4,8.78,8.78,0,0,0-1.7-.1,2.4,2.4,0,0,0-1.6.4,1.2,1.2,0,0,0-.5.9,1.39,1.39,0,0,0,.5,1,4.6,4.6,0,0,0,1.4.7c.5.2,1.1.5,1.7.7a9.36,9.36,0,0,1,1.7,1,5,5,0,0,1,1.3,1.6,4.62,4.62,0,0,1,.5,2.5,4.85,4.85,0,0,1-.5,2.7m3.1,3.7V.4H26.7V4.9h-6V7.6h5.7v4.3H20.7v3.2h6v4.5Zm24.6,0-3.6-7h-.2v7H30.9V.4A29.19,29.19,0,0,1,34,.3h3.5a10.16,10.16,0,0,1,5.7,1.4,5.28,5.28,0,0,1,2,4.6A9.74,9.74,0,0,1,45,8a6.84,6.84,0,0,1-.7,1.5,6.83,6.83,0,0,1-1.1,1.3,3.58,3.58,0,0,1-1.5.8c.3.4.5.8.7,1.1a6.61,6.61,0,0,0,.7,1.1l3.5,5.9H40ZM39,5.2a2.3,2.3,0,0,0-1.8-.6h-1V8.7h.9a2.79,2.79,0,0,0,1.8-.6,1.86,1.86,0,0,0,.7-1.6A3.16,3.16,0,0,0,39,5.2M58.5,19.6H52.3L45.9.4h5.7L54.5,10c.2.5.3,1,.5,1.6s.3,1.2.5,1.8h.1c.1-.3.1-.6.2-.8a2.41,2.41,0,0,1,.2-.8c.1-.3.1-.6.2-.9a11.69,11.69,0,0,0,.3-1.2L59.4.3h5.4ZM66.7.4H72V19.7H66.7ZM86.4,19.7a19.42,19.42,0,0,1-2.4.2,10.26,10.26,0,0,1-4.6-.9,7.81,7.81,0,0,1-2.8-2.2,8.41,8.41,0,0,1-1.4-3,17.09,17.09,0,0,1-.4-3.1,12.64,12.64,0,0,1,.7-4.4A9,9,0,0,1,77.4,3,8.45,8.45,0,0,1,80.5.9,10.76,10.76,0,0,1,84.7.2a12.1,12.1,0,0,1,1.9.1l1.8.3L88,5.5l-1.5-.3a8.55,8.55,0,0,0-1.6-.1,3.67,3.67,0,0,0-3,1.3A5.37,5.37,0,0,0,80.8,10a6,6,0,0,0,1,3.8,3.9,3.9,0,0,0,3.3,1.3,8.41,8.41,0,0,0,1.5-.1,4.58,4.58,0,0,0,1.4-.4l.6,4.7c-.6.1-1.4.3-2.2.4m5.3-.1V.4h11.2V4.9H97V7.6h5.6v4.3H97v3.2h5.9v4.5ZM120.4,9.4a6.81,6.81,0,0,1-1.4,2.3,5.75,5.75,0,0,1-2.4,1.5,9,9,0,0,1-3.4.6h-.8v5.9H107V.4c.9,0,1.8-.1,2.8-.1h3c2.6,0,4.6.5,5.9,1.6a6.14,6.14,0,0,1,2,4.8,8.22,8.22,0,0,1-.3,2.7m-5.6-4.2a2.25,2.25,0,0,0-1.9-.7h-.5V9.2h.4a2.79,2.79,0,0,0,1.8-.6,2.19,2.19,0,0,0,.8-1.8,2.41,2.41,0,0,0-.6-1.6m8.1,14.4V.4h5.3V14.9h5.2l-1.7,4.7Zm24.2,0-1-3.1h-5.9l-1,3.1H134L140.3.3h6.1L153,19.6Zm-4-13H143c-.1.6-1.7,5.8-1.7,5.8h3.3S143.2,7.2,143.1,6.6Zm21.7,13L161.6,13c-.4-.8-.7-1.5-1.1-2.3l-.9-2.1a8.41,8.41,0,0,1,.1,1.5v9.5h-5.1V.4h6.8l2.8,5.7c.4.9.8,1.7,1.2,2.6s.8,1.7,1.1,2.4c-.1-.7-.1-1.3-.2-2V.4h5.1V19.7l-6.6-.1Z" transform="translate(0.01 0.01)"/>
  <rect id="big_black" data-name="big black" x="180.01" y="0.01" width="20" height="20"/>
  <rect id="white" x="187.69" y="5.38" width="4.63" height="4.63" fill="#fff"/>
  <rect id="dark_grey" data-name="dark grey" x="183.06" y="5.38" width="4.63" height="4.63" fill="#868686"/>
  <rect id="red" x="187.69" y="10.01" width="4.63" height="4.63" fill="#f0191e"/>
  <rect id="light_grey" data-name="light grey" x="192.32" y="10.01" width="4.63" height="4.63" fill="#b3b2b2"/>
  <rect x="187.69" y="0.75" width="4.63" height="4.63" fill="url(#linear-gradient)"/>
  <rect x="192.32" y="14.64" width="4.63" height="4.63" fill="url(#linear-gradient-2)"/>
</svg>
