<svg xmlns="http://www.w3.org/2000/svg" viewBox="0 0 1080 1080" width="1080" height="1080"><defs><style>.cls-1{fill:#ffc80c;}.cls-2{fill:none;}</style></defs><title>facebook-profile-overlay20200212</title><g id="Layer_2" data-name="Layer 2"><polygon class="cls-1" points="1007.3 40.36 1026.07 59.14 1007.45 59.14 1007.45 72.98 1049.78 72.98 1049.76 30.6 1035.92 30.61 1035.93 49.41 1017.09 30.57 1007.3 40.36"/><polygon class="cls-1" points="867.53 39.92 886.3 58.7 867.68 58.7 867.68 72.54 910.01 72.54 909.99 30.16 896.15 30.16 896.15 48.97 877.32 30.13 867.53 39.92"/><polygon class="cls-1" points="946.55 110.03 965.32 128.8 946.7 128.8 946.7 142.65 989.03 142.65 989.01 100.26 975.17 100.27 975.17 119.08 956.34 100.24 946.55 110.03"/><polygon class="cls-1" points="1007.74 180.14 1026.52 198.91 1007.89 198.91 1007.89 212.75 1050.23 212.75 1050.2 170.37 1036.36 170.38 1036.37 189.19 1017.53 170.35 1007.74 180.14"/><polygon class="cls-1" points="727.75 39.48 746.53 58.25 727.9 58.25 727.9 72.09 770.24 72.09 770.22 29.71 756.37 29.72 756.38 48.53 737.54 29.69 727.75 39.48"/><polygon class="cls-1" points="806.77 109.58 825.55 128.36 806.92 128.36 806.92 142.2 849.26 142.2 849.24 99.82 835.39 99.83 835.4 118.64 816.56 99.8 806.77 109.58"/><polygon class="cls-1" points="867.97 179.69 886.74 198.47 868.12 198.47 868.12 212.31 910.45 212.31 910.43 169.93 896.59 169.94 896.6 188.75 877.76 169.91 867.97 179.69"/><polygon class="cls-1" points="938.08 249.8 956.85 268.58 938.23 268.58 938.23 282.42 980.56 282.42 980.54 240.04 966.7 240.04 966.71 258.85 947.87 240.01 938.08 249.8"/><polygon class="cls-1" points="1008.19 319.91 1026.96 338.68 1008.34 338.68 1008.34 352.53 1050.67 352.53 1050.65 310.14 1036.81 310.15 1036.81 328.96 1017.97 310.12 1008.19 319.91"/><polygon class="cls-1" points="587.98 39.03 606.75 57.81 588.13 57.81 588.13 71.65 630.46 71.65 630.44 29.27 616.6 29.27 616.61 48.09 597.77 29.25 587.98 39.03"/><polygon class="cls-1" points="667 109.14 685.77 127.92 667.15 127.92 667.15 141.76 709.48 141.76 709.46 99.38 695.62 99.38 695.63 118.19 676.79 99.35 667 109.14"/><polygon class="cls-1" points="798.3 249.36 817.08 268.13 798.45 268.13 798.45 281.98 840.79 281.98 840.77 239.59 826.92 239.6 826.93 258.41 808.09 239.57 798.3 249.36"/><polygon class="cls-1" points="868.41 319.47 887.19 338.24 868.56 338.24 868.56 352.08 910.9 352.08 910.88 309.7 897.03 309.71 897.04 328.52 878.2 309.68 868.41 319.47"/><polygon class="cls-1" points="1008.63 459.68 1027.4 478.46 1008.78 478.46 1008.78 492.3 1051.11 492.3 1051.09 449.92 1037.25 449.92 1037.26 468.73 1018.42 449.89 1008.63 459.68"/><polygon class="cls-1" points="448.21 38.59 466.98 57.37 448.36 57.37 448.36 71.21 490.69 71.21 490.67 28.83 476.83 28.83 476.84 47.64 458 28.8 448.21 38.59"/><polygon class="cls-1" points="527.23 108.7 546 127.47 527.38 127.47 527.38 141.32 569.71 141.32 569.69 98.93 555.85 98.94 555.86 117.75 537.01 98.91 527.23 108.7"/><polygon class="cls-1" points="658.53 248.91 677.31 267.69 658.68 267.69 658.68 281.53 701.01 281.53 700.99 239.15 687.15 239.16 687.16 257.97 668.32 239.13 658.53 248.91"/><polygon class="cls-1" points="868.86 459.24 887.63 478.01 869.01 478.01 869.01 491.86 911.34 491.86 911.32 449.48 897.48 449.48 897.48 468.29 878.64 449.45 868.86 459.24"/><polygon class="cls-1" points="308.43 38.15 327.21 56.92 308.58 56.92 308.58 70.77 350.92 70.77 350.9 28.38 337.05 28.39 337.06 47.2 318.22 28.36 308.43 38.15"/><polygon class="cls-1" points="387.45 108.26 406.23 127.03 387.6 127.03 387.6 140.87 429.94 140.87 429.92 98.49 416.07 98.5 416.08 117.31 397.24 98.47 387.45 108.26"/><polygon class="cls-1" points="168.66 37.7 187.44 56.48 168.81 56.48 168.81 70.32 211.14 70.32 211.12 27.94 197.28 27.95 197.29 46.76 178.45 27.92 168.66 37.7"/><polygon class="cls-1" points="247.68 107.81 266.45 126.59 247.83 126.59 247.83 140.43 290.16 140.43 290.14 98.05 276.3 98.05 276.31 116.86 257.47 98.02 247.68 107.81"/><polygon class="cls-1" points="308.88 177.92 327.65 196.7 309.03 196.7 309.03 210.54 351.36 210.54 351.34 168.16 337.5 168.16 337.51 186.97 318.67 168.13 308.88 177.92"/><polygon class="cls-1" points="378.99 248.03 397.76 266.8 379.13 266.8 379.13 280.65 421.47 280.65 421.45 238.26 407.61 238.27 407.61 257.08 388.77 238.24 378.99 248.03"/><polygon class="cls-1" points="28.89 37.26 47.66 56.04 29.04 56.04 29.04 69.88 71.37 69.88 71.35 27.5 57.51 27.5 57.52 46.31 38.68 27.47 28.89 37.26"/><polygon class="cls-1" points="107.91 107.37 126.68 126.14 108.06 126.14 108.06 139.99 150.39 139.99 150.37 97.6 136.53 97.61 136.54 116.42 117.7 97.58 107.91 107.37"/><polygon class="cls-1" points="169.1 177.48 187.88 196.25 169.25 196.25 169.25 210.1 211.59 210.1 211.57 167.71 197.72 167.72 197.73 186.53 178.89 167.69 169.1 177.48"/><polygon class="cls-1" points="239.21 247.59 257.99 266.36 239.36 266.36 239.36 280.2 281.69 280.2 281.68 237.82 267.83 237.83 267.84 256.64 249 237.8 239.21 247.59"/><polygon class="cls-1" points="29.33 177.03 48.1 195.81 29.48 195.81 29.48 209.65 71.81 209.65 71.79 167.27 57.95 167.28 57.96 186.09 39.12 167.25 29.33 177.03"/><polygon class="cls-1" points="99.44 247.14 118.21 265.92 99.59 265.92 99.59 279.76 141.92 279.76 141.9 237.38 128.06 237.38 128.07 256.19 109.23 237.35 99.44 247.14"/><polygon class="cls-1" points="29.77 316.81 48.55 335.58 29.92 335.58 29.92 349.43 72.26 349.43 72.24 307.04 58.39 307.05 58.4 325.86 39.56 307.02 29.77 316.81"/><polygon class="cls-1" points="99.88 386.92 118.66 405.69 100.03 405.69 100.03 419.53 142.37 419.53 142.34 377.15 128.5 377.16 128.51 395.97 109.67 377.13 99.88 386.92"/><polygon class="cls-1" points="169.99 457.02 188.76 475.8 170.14 475.8 170.14 489.64 212.47 489.64 212.45 447.26 198.61 447.26 198.62 466.07 179.78 447.24 169.99 457.02"/><polygon class="cls-1" points="30.22 456.58 48.99 475.36 30.37 475.36 30.37 489.2 72.7 489.2 72.68 446.82 58.84 446.82 58.85 465.63 40.01 446.79 30.22 456.58"/><polygon class="cls-1" points="946.55 528.5 965.32 547.27 946.7 547.27 946.7 561.12 989.03 561.12 989.01 518.73 975.17 518.74 975.17 537.55 956.34 518.71 946.55 528.5"/><polygon class="cls-1" points="1007.74 598.61 1026.52 617.38 1007.89 617.38 1007.89 631.22 1050.23 631.22 1050.2 588.84 1036.36 588.85 1036.37 607.66 1017.53 588.82 1007.74 598.61"/><polygon class="cls-1" points="938.08 668.27 956.85 687.04 938.23 687.04 938.23 700.89 980.56 700.89 980.54 658.5 966.7 658.51 966.71 677.32 947.87 658.48 938.08 668.27"/><polygon class="cls-1" points="1008.19 738.38 1026.96 757.15 1008.34 757.15 1008.34 771 1050.67 771 1050.65 728.61 1036.81 728.62 1036.81 747.43 1017.97 728.59 1008.19 738.38"/><polygon class="cls-1" points="1008.63 878.15 1027.4 896.93 1008.78 896.93 1008.78 910.77 1051.11 910.77 1051.09 868.39 1037.25 868.39 1037.26 887.2 1018.42 868.36 1008.63 878.15"/><polygon class="cls-1" points="107.91 525.84 126.68 544.61 108.06 544.61 108.06 558.46 150.39 558.46 150.37 516.07 136.53 516.08 136.54 534.89 117.7 516.05 107.91 525.84"/><polygon class="cls-1" points="29.33 595.5 48.1 614.28 29.48 614.28 29.48 628.12 71.81 628.12 71.79 585.74 57.95 585.74 57.96 604.55 39.12 585.71 29.33 595.5"/><polygon class="cls-1" points="99.44 665.61 118.21 684.39 99.59 684.39 99.59 698.23 141.92 698.23 141.9 655.85 128.06 655.85 128.07 674.66 109.23 655.82 99.44 665.61"/><polygon class="cls-1" points="239.66 805.83 258.43 824.6 239.81 824.6 239.81 838.45 282.14 838.45 282.12 796.06 268.27 796.07 268.28 814.88 249.44 796.04 239.66 805.83"/><polygon class="cls-1" points="29.77 735.28 48.55 754.05 29.92 754.05 29.92 767.89 72.26 767.89 72.24 725.51 58.39 725.52 58.4 744.33 39.56 725.49 29.77 735.28"/><polygon class="cls-1" points="99.88 805.38 118.66 824.16 100.03 824.16 100.03 838 142.37 838 142.34 795.62 128.5 795.63 128.51 814.44 109.67 795.6 99.88 805.38"/><polygon class="cls-1" points="169.99 875.49 188.76 894.27 170.14 894.27 170.14 908.11 212.47 908.11 212.45 865.73 198.61 865.73 198.62 884.54 179.78 865.7 169.99 875.49"/><polygon class="cls-1" points="30.22 875.05 48.99 893.82 30.37 893.82 30.37 907.67 72.7 907.67 72.68 865.28 58.84 865.29 58.85 884.1 40.01 865.26 30.22 875.05"/><polygon class="cls-1" points="946.33 949.8 965.1 968.58 946.47 968.58 946.47 982.42 988.81 982.42 988.79 940.04 974.94 940.04 974.95 958.85 956.11 940.01 946.33 949.8"/><polygon class="cls-1" points="1007.52 1019.91 1026.3 1038.68 1007.67 1038.68 1007.67 1052.53 1050 1052.53 1049.98 1010.14 1036.14 1010.15 1036.15 1028.96 1017.31 1010.12 1007.52 1019.91"/><polygon class="cls-1" points="867.75 1019.47 886.52 1038.24 867.9 1038.24 867.9 1052.08 910.23 1052.08 910.21 1009.7 896.37 1009.71 896.38 1028.52 877.54 1009.68 867.75 1019.47"/><polygon class="cls-1" points="727.98 1019.02 746.75 1037.8 728.13 1037.8 728.13 1051.64 770.46 1051.64 770.44 1009.26 756.59 1009.26 756.6 1028.07 737.76 1009.23 727.98 1019.02"/><polygon class="cls-1" points="448.43 1018.14 467.2 1036.91 448.58 1036.91 448.58 1050.76 490.91 1050.76 490.89 1008.37 477.05 1008.38 477.06 1027.19 458.22 1008.35 448.43 1018.14"/><polygon class="cls-1" points="247.46 947.59 266.23 966.36 247.61 966.36 247.61 980.2 289.94 980.2 289.92 937.82 276.08 937.83 276.09 956.64 257.25 937.8 247.46 947.59"/><polygon class="cls-1" points="308.66 1017.69 327.43 1036.47 308.81 1036.47 308.81 1050.31 351.14 1050.31 351.12 1007.93 337.27 1007.93 337.28 1026.74 318.44 1007.9 308.66 1017.69"/><polygon class="cls-1" points="107.69 947.14 126.46 965.92 107.84 965.92 107.84 979.76 150.17 979.76 150.15 937.38 136.31 937.38 136.31 956.19 117.47 937.35 107.69 947.14"/><polygon class="cls-1" points="168.88 1017.25 187.66 1036.03 169.03 1036.03 169.03 1049.87 211.37 1049.87 211.34 1007.49 197.5 1007.49 197.51 1026.3 178.67 1007.46 168.88 1017.25"/><polygon class="cls-1" points="29.11 1016.81 47.88 1035.58 29.26 1035.58 29.26 1049.42 71.59 1049.42 71.57 1007.04 57.73 1007.05 57.74 1025.86 38.9 1007.02 29.11 1016.81"/><path class="cls-1" d="M582.88,820.42v44H570.13v-6.17c-4,4.83-10.39,8-19.51,8-17.59,0-28.73-12.3-28.73-26.88V808.05c0-15.56,11.61-28.27,30.68-28.27,18.61,0,29.74,12.3,29.74,27.3v1.19h-15.5v-1.19c0-7.56-5.23-13.87-14.24-13.87-9.71,0-15.12,6.63-15.12,14.89v29.73c0,8.81,5.49,15,15.53,15,9.25,0,15.58-5,15.58-15V833.6H552.19V820.42Z"/><path class="cls-1" d="M641.62,843.51v.66c0,12.33-9.46,21.76-25.37,21.76S591,856.05,591,843.08V822.56c0-12.89,9.33-22.85,25-22.85,15.91,0,25.18,10,25.18,22.88v14.46h-35.9v5.8c0,6.11,3.86,10.68,11,10.68s11.19-4.12,11.19-9.54v-.48ZM605.21,822.8v2.77h21.65v-2.75c0-6.05-3.75-10.71-10.93-10.71C608.94,812.11,605.21,816.77,605.21,822.8Z"/><path class="cls-1" d="M682.05,799.71v13.81h-4.26c-8.25,0-13.83,4.72-13.83,13.25v37.65H649.71V801.23h13v7.18c3.4-5.37,9-8.7,17-8.7Z"/><path class="cls-1" d="M767.21,864.42H753l-.07-42.6c0-5.9-3-9.71-9.1-9.71-6,0-9.46,4-9.46,10.14v42.17H720.16v-42.6c0-5.9-3-9.71-9.1-9.71-5.53,0-8.94,3.34-9.46,8.67v43.64H687.36V801.23h13v5.29c3.13-4.22,8-6.81,14.63-6.81,7,0,12.3,2.71,15.57,6.91,3.32-4.28,8.52-6.91,15.8-6.91,13.28,0,20.85,8.9,20.85,19.71Z"/><path class="cls-1" d="M824,822.59v41.83H811.53v-4.48c-3.36,3.51-8.37,6-15.32,6-14.11,0-21.91-8.65-21.91-19.75s8.24-19.75,23.06-19.75a21.45,21.45,0,0,1,12.32,3.48v-7.15c0-6.41-3.39-10.65-9.66-10.65-5.82,0-9.67,3.43-9.67,9v1.07H776.11V821c0-12.43,9.46-21.31,23.91-21.31C815,799.71,824,809.67,824,822.59Zm-13.72,23.59c0-4.85-3.5-9.09-10.67-9.09-6.87,0-10.87,4.24-10.87,9.09s4,9,10.87,9C806.76,855.22,810.26,851,810.26,846.18Z"/><path class="cls-1" d="M883.17,819.93v44.49H868.92V822.81c0-6.45-3.4-10.7-10.29-10.7-6.5,0-10.24,4.19-10.24,10.7v41.61H834.14V801.23h13v5.48c3.17-4.34,8.1-7,14.93-7C875.72,799.71,883.17,808.81,883.17,819.93Z"/><path class="cls-1" d="M578,897.15l-37.45,57.53h37.25V968H522.07V956.17l37.14-57.53H523.34V885.27H578Z"/><path class="cls-1" d="M633.64,947.14v.66c0,12.33-9.45,21.76-25.36,21.76S583,959.68,583,946.71V926.19c0-12.89,9.32-22.85,25-22.85,15.9,0,25.17,10,25.17,22.88v14.46h-35.9v5.8c0,6.11,3.87,10.68,11,10.68s11.19-4.12,11.19-9.54v-.48Zm-36.41-20.71v2.77h21.66v-2.75c0-6.06-3.75-10.71-10.93-10.71C601,915.74,597.23,920.39,597.23,926.43Z"/><path class="cls-1" d="M674.07,903.34v13.81h-4.25c-8.25,0-13.84,4.72-13.84,13.25V968H641.74V904.86h13V912c3.4-5.38,9-8.7,17-8.7Z"/><path class="cls-1" d="M727.09,926.19v20.52c0,12.89-9.34,22.85-25.18,22.85s-25.18-10-25.18-22.85V926.19c0-12.89,9.33-22.85,25.18-22.85S727.09,913.3,727.09,926.19Zm-25.18-10.45c-7.06,0-10.94,4.65-10.94,10.69v20.05c0,6,3.88,10.68,10.94,10.68s10.93-4.65,10.93-10.68V926.43C712.84,920.39,709,915.74,701.91,915.74Z"/><polygon class="cls-1" points="378.74 823.3 378.74 837.38 421.8 837.38 421.78 794.27 407.7 794.27 407.71 813.41 386.67 792.37 376.72 802.33 397.69 823.3 378.74 823.3"/><path class="cls-1" d="M465.12,796.61a60.31,60.31,0,0,0-42.2-16.92v14.08c25.21,0,45.72,19.73,45.72,44s-20.51,44-45.72,44-45.73-19.73-45.73-44H363.11a56.81,56.81,0,0,0,17.6,41.13,61.07,61.07,0,0,0,84.41,0,56.87,56.87,0,0,0,0-82.27Z"/><rect class="cls-2" width="1080" height="1080"/></g></svg>
