<svg xmlns="http://www.w3.org/2000/svg" viewBox="0 0 1080 1080" width="1080" height="1080"><defs><style>.cls-1{fill:#ffc80c;}.cls-2{fill:none;}</style></defs><title>facebook-profile-overlay20200212</title><g id="Layer_2" data-name="Layer 2"><polygon class="cls-1" points="1007.3 40.36 1026.07 59.14 1007.45 59.14 1007.45 72.98 1049.78 72.98 1049.76 30.6 1035.92 30.61 1035.93 49.41 1017.09 30.57 1007.3 40.36"/><polygon class="cls-1" points="867.53 39.92 886.3 58.7 867.68 58.7 867.68 72.54 910.01 72.54 909.99 30.16 896.15 30.16 896.15 48.97 877.32 30.13 867.53 39.92"/><polygon class="cls-1" points="946.55 110.03 965.32 128.8 946.7 128.8 946.7 142.65 989.03 142.65 989.01 100.26 975.17 100.27 975.17 119.08 956.34 100.24 946.55 110.03"/><polygon class="cls-1" points="1007.74 180.14 1026.52 198.91 1007.89 198.91 1007.89 212.75 1050.23 212.75 1050.2 170.37 1036.36 170.38 1036.37 189.19 1017.53 170.35 1007.74 180.14"/><polygon class="cls-1" points="727.75 39.48 746.53 58.25 727.9 58.25 727.9 72.09 770.24 72.09 770.22 29.71 756.37 29.72 756.38 48.53 737.54 29.69 727.75 39.48"/><polygon class="cls-1" points="806.77 109.58 825.55 128.36 806.92 128.36 806.92 142.2 849.26 142.2 849.24 99.82 835.39 99.83 835.4 118.64 816.56 99.8 806.77 109.58"/><polygon class="cls-1" points="867.97 179.69 886.74 198.47 868.12 198.47 868.12 212.31 910.45 212.31 910.43 169.93 896.59 169.94 896.6 188.75 877.76 169.91 867.97 179.69"/><polygon class="cls-1" points="938.08 249.8 956.85 268.58 938.23 268.58 938.23 282.42 980.56 282.42 980.54 240.04 966.7 240.04 966.71 258.85 947.87 240.01 938.08 249.8"/><polygon class="cls-1" points="1008.19 319.91 1026.96 338.68 1008.34 338.68 1008.34 352.53 1050.67 352.53 1050.65 310.14 1036.81 310.15 1036.81 328.96 1017.97 310.12 1008.19 319.91"/><polygon class="cls-1" points="587.98 39.03 606.75 57.81 588.13 57.81 588.13 71.65 630.46 71.65 630.44 29.27 616.6 29.27 616.61 48.09 597.77 29.25 587.98 39.03"/><polygon class="cls-1" points="667 109.14 685.77 127.92 667.15 127.92 667.15 141.76 709.48 141.76 709.46 99.38 695.62 99.38 695.63 118.19 676.79 99.35 667 109.14"/><polygon class="cls-1" points="728.2 179.25 746.97 198.03 728.35 198.03 728.35 211.87 770.68 211.87 770.66 169.49 756.82 169.49 756.83 188.3 737.99 169.46 728.2 179.25"/><polygon class="cls-1" points="798.3 249.36 817.08 268.13 798.45 268.13 798.45 281.98 840.79 281.98 840.77 239.59 826.92 239.6 826.93 258.41 808.09 239.57 798.3 249.36"/><polygon class="cls-1" points="868.41 319.47 887.19 338.24 868.56 338.24 868.56 352.08 910.9 352.08 910.88 309.7 897.03 309.71 897.04 328.52 878.2 309.68 868.41 319.47"/><polygon class="cls-1" points="938.52 389.57 957.29 408.35 938.67 408.35 938.67 422.19 981 422.19 980.98 379.81 967.14 379.82 967.15 398.63 948.31 379.79 938.52 389.57"/><polygon class="cls-1" points="1008.63 459.68 1027.4 478.46 1008.78 478.46 1008.78 492.3 1051.11 492.3 1051.09 449.92 1037.25 449.92 1037.26 468.73 1018.42 449.89 1008.63 459.68"/><polygon class="cls-1" points="448.21 38.59 466.98 57.37 448.36 57.37 448.36 71.21 490.69 71.21 490.67 28.83 476.83 28.83 476.84 47.64 458 28.8 448.21 38.59"/><polygon class="cls-1" points="527.23 108.7 546 127.47 527.38 127.47 527.38 141.32 569.71 141.32 569.69 98.93 555.85 98.94 555.86 117.75 537.01 98.91 527.23 108.7"/><polygon class="cls-1" points="588.42 178.81 607.2 197.58 588.57 197.58 588.57 211.43 630.91 211.43 630.89 169.04 617.04 169.05 617.05 187.86 598.21 169.02 588.42 178.81"/><polygon class="cls-1" points="658.53 248.91 677.31 267.69 658.68 267.69 658.68 281.53 701.01 281.53 700.99 239.15 687.15 239.16 687.16 257.97 668.32 239.13 658.53 248.91"/><polygon class="cls-1" points="728.64 319.02 747.41 337.8 728.79 337.8 728.79 351.64 771.12 351.64 771.1 309.26 757.26 309.26 757.27 328.07 738.43 309.24 728.64 319.02"/><polygon class="cls-1" points="798.75 389.13 817.52 407.91 798.9 407.91 798.9 421.75 841.23 421.75 841.21 379.37 827.37 379.37 827.38 398.18 808.54 379.34 798.75 389.13"/><polygon class="cls-1" points="868.86 459.24 887.63 478.01 869.01 478.01 869.01 491.86 911.34 491.86 911.32 449.48 897.48 449.48 897.48 468.29 878.64 449.45 868.86 459.24"/><polygon class="cls-1" points="308.43 38.15 327.21 56.92 308.58 56.92 308.58 70.77 350.92 70.77 350.9 28.38 337.05 28.39 337.06 47.2 318.22 28.36 308.43 38.15"/><polygon class="cls-1" points="387.45 108.26 406.23 127.03 387.6 127.03 387.6 140.87 429.94 140.87 429.92 98.49 416.07 98.5 416.08 117.31 397.24 98.47 387.45 108.26"/><polygon class="cls-1" points="448.65 178.36 467.43 197.14 448.8 197.14 448.8 210.98 491.13 210.98 491.11 168.6 477.27 168.6 477.28 187.41 458.44 168.57 448.65 178.36"/><polygon class="cls-1" points="518.76 248.47 537.53 267.25 518.91 267.25 518.91 281.09 561.24 281.09 561.22 238.71 547.38 238.71 547.39 257.52 528.55 238.68 518.76 248.47"/><polygon class="cls-1" points="588.87 318.58 607.64 337.36 589.02 337.36 589.02 351.2 631.35 351.2 631.33 308.81 617.49 308.82 617.5 327.63 598.65 308.79 588.87 318.58"/><polygon class="cls-1" points="658.98 388.69 677.75 407.46 659.12 407.46 659.12 421.31 701.46 421.31 701.44 378.92 687.59 378.93 687.6 397.74 668.76 378.9 658.98 388.69"/><polygon class="cls-1" points="729.08 458.8 747.86 477.57 729.23 477.57 729.23 491.41 771.57 491.41 771.54 449.03 757.7 449.04 757.71 467.85 738.87 449.01 729.08 458.8"/><polygon class="cls-1" points="168.66 37.7 187.44 56.48 168.81 56.48 168.81 70.32 211.14 70.32 211.12 27.94 197.28 27.95 197.29 46.76 178.45 27.92 168.66 37.7"/><polygon class="cls-1" points="247.68 107.81 266.45 126.59 247.83 126.59 247.83 140.43 290.16 140.43 290.14 98.05 276.3 98.05 276.31 116.86 257.47 98.02 247.68 107.81"/><polygon class="cls-1" points="308.88 177.92 327.65 196.7 309.03 196.7 309.03 210.54 351.36 210.54 351.34 168.16 337.5 168.16 337.51 186.97 318.67 168.13 308.88 177.92"/><polygon class="cls-1" points="378.99 248.03 397.76 266.8 379.13 266.8 379.13 280.65 421.47 280.65 421.45 238.26 407.61 238.27 407.61 257.08 388.77 238.24 378.99 248.03"/><polygon class="cls-1" points="449.09 318.14 467.87 336.91 449.24 336.91 449.24 350.75 491.58 350.75 491.56 308.37 477.71 308.38 477.72 327.19 458.88 308.35 449.09 318.14"/><polygon class="cls-1" points="519.2 388.25 537.98 407.02 519.35 407.02 519.35 420.86 561.68 420.86 561.66 378.48 547.82 378.49 547.83 397.3 528.99 378.46 519.2 388.25"/><polygon class="cls-1" points="589.31 458.35 608.08 477.13 589.46 477.13 589.46 490.97 631.79 490.97 631.77 448.59 617.93 448.6 617.94 467.4 599.1 448.56 589.31 458.35"/><polygon class="cls-1" points="28.89 37.26 47.66 56.04 29.04 56.04 29.04 69.88 71.37 69.88 71.35 27.5 57.51 27.5 57.52 46.31 38.68 27.47 28.89 37.26"/><polygon class="cls-1" points="107.91 107.37 126.68 126.14 108.06 126.14 108.06 139.99 150.39 139.99 150.37 97.6 136.53 97.61 136.54 116.42 117.7 97.58 107.91 107.37"/><polygon class="cls-1" points="169.1 177.48 187.88 196.25 169.25 196.25 169.25 210.1 211.59 210.1 211.57 167.71 197.72 167.72 197.73 186.53 178.89 167.69 169.1 177.48"/><polygon class="cls-1" points="239.21 247.59 257.99 266.36 239.36 266.36 239.36 280.2 281.69 280.2 281.68 237.82 267.83 237.83 267.84 256.64 249 237.8 239.21 247.59"/><polygon class="cls-1" points="309.32 317.69 328.1 336.47 309.47 336.47 309.47 350.31 351.8 350.31 351.78 307.93 337.94 307.94 337.95 326.75 319.11 307.9 309.32 317.69"/><polygon class="cls-1" points="379.43 387.8 398.2 406.58 379.58 406.58 379.58 420.42 421.91 420.42 421.89 378.04 408.05 378.04 408.06 396.85 389.22 378.01 379.43 387.8"/><polygon class="cls-1" points="449.54 457.91 468.31 476.69 449.69 476.69 449.69 490.53 492.02 490.53 492 448.14 478.16 448.15 478.17 466.96 459.32 448.12 449.54 457.91"/><polygon class="cls-1" points="29.33 177.03 48.1 195.81 29.48 195.81 29.48 209.65 71.81 209.65 71.79 167.27 57.95 167.28 57.96 186.09 39.12 167.25 29.33 177.03"/><polygon class="cls-1" points="99.44 247.14 118.21 265.92 99.59 265.92 99.59 279.76 141.92 279.76 141.9 237.38 128.06 237.38 128.07 256.19 109.23 237.35 99.44 247.14"/><polygon class="cls-1" points="169.55 317.25 188.32 336.02 169.7 336.02 169.7 349.87 212.03 349.87 212.01 307.49 198.17 307.49 198.18 326.3 179.34 307.46 169.55 317.25"/><polygon class="cls-1" points="239.66 387.36 258.43 406.13 239.81 406.13 239.81 419.98 282.14 419.98 282.12 377.59 268.27 377.6 268.28 396.41 249.44 377.57 239.66 387.36"/><polygon class="cls-1" points="309.76 457.47 328.54 476.24 309.91 476.24 309.91 490.08 352.25 490.08 352.23 447.7 338.38 447.71 338.39 466.52 319.55 447.68 309.76 457.47"/><polygon class="cls-1" points="29.77 316.81 48.55 335.58 29.92 335.58 29.92 349.43 72.26 349.43 72.24 307.04 58.39 307.05 58.4 325.86 39.56 307.02 29.77 316.81"/><polygon class="cls-1" points="99.88 386.92 118.66 405.69 100.03 405.69 100.03 419.53 142.37 419.53 142.34 377.15 128.5 377.16 128.51 395.97 109.67 377.13 99.88 386.92"/><polygon class="cls-1" points="169.99 457.02 188.76 475.8 170.14 475.8 170.14 489.64 212.47 489.64 212.45 447.26 198.61 447.26 198.62 466.07 179.78 447.24 169.99 457.02"/><polygon class="cls-1" points="30.22 456.58 48.99 475.36 30.37 475.36 30.37 489.2 72.7 489.2 72.68 446.82 58.84 446.82 58.85 465.63 40.01 446.79 30.22 456.58"/><polygon class="cls-1" points="946.55 528.5 965.32 547.27 946.7 547.27 946.7 561.12 989.03 561.12 989.01 518.73 975.17 518.74 975.17 537.55 956.34 518.71 946.55 528.5"/><polygon class="cls-1" points="1007.74 598.61 1026.52 617.38 1007.89 617.38 1007.89 631.22 1050.23 631.22 1050.2 588.84 1036.36 588.85 1036.37 607.66 1017.53 588.82 1007.74 598.61"/><polygon class="cls-1" points="806.77 528.05 825.55 546.83 806.92 546.83 806.92 560.67 849.26 560.67 849.24 518.29 835.39 518.29 835.4 537.11 816.56 518.26 806.77 528.05"/><polygon class="cls-1" points="867.97 598.16 886.74 616.94 868.12 616.94 868.12 630.78 910.45 630.78 910.43 588.4 896.59 588.4 896.6 607.21 877.76 588.37 867.97 598.16"/><polygon class="cls-1" points="938.08 668.27 956.85 687.04 938.23 687.04 938.23 700.89 980.56 700.89 980.54 658.5 966.7 658.51 966.71 677.32 947.87 658.48 938.08 668.27"/><polygon class="cls-1" points="1008.19 738.38 1026.96 757.15 1008.34 757.15 1008.34 771 1050.67 771 1050.65 728.61 1036.81 728.62 1036.81 747.43 1017.97 728.59 1008.19 738.38"/><polygon class="cls-1" points="667 527.61 685.77 546.38 667.15 546.38 667.15 560.23 709.48 560.23 709.46 517.85 695.62 517.85 695.63 536.66 676.79 517.82 667 527.61"/><polygon class="cls-1" points="728.2 597.72 746.97 616.49 728.35 616.49 728.35 630.34 770.68 630.34 770.66 587.95 756.82 587.96 756.83 606.77 737.99 587.93 728.2 597.72"/><polygon class="cls-1" points="798.3 667.83 817.08 686.6 798.45 686.6 798.45 700.45 840.79 700.45 840.77 658.06 826.92 658.07 826.93 676.88 808.09 658.04 798.3 667.83"/><polygon class="cls-1" points="868.41 737.93 887.19 756.71 868.56 756.71 868.56 770.55 910.9 770.55 910.88 728.17 897.03 728.18 897.04 746.99 878.2 728.15 868.41 737.93"/><polygon class="cls-1" points="938.52 808.04 957.29 826.82 938.67 826.82 938.67 840.66 981 840.66 980.98 798.28 967.14 798.28 967.15 817.1 948.31 798.25 938.52 808.04"/><polygon class="cls-1" points="1008.63 878.15 1027.4 896.93 1008.78 896.93 1008.78 910.77 1051.11 910.77 1051.09 868.39 1037.25 868.39 1037.26 887.2 1018.42 868.36 1008.63 878.15"/><polygon class="cls-1" points="527.23 527.17 546 545.94 527.38 545.94 527.38 559.78 569.71 559.78 569.69 517.4 555.85 517.41 555.86 536.22 537.01 517.38 527.23 527.17"/><polygon class="cls-1" points="588.42 597.28 607.2 616.05 588.57 616.05 588.57 629.89 630.91 629.89 630.89 587.51 617.04 587.52 617.05 606.33 598.21 587.49 588.42 597.28"/><polygon class="cls-1" points="658.53 667.38 677.31 686.16 658.68 686.16 658.68 700 701.01 700 700.99 657.62 687.15 657.63 687.16 676.43 668.32 657.6 658.53 667.38"/><polygon class="cls-1" points="728.64 737.49 747.41 756.27 728.79 756.27 728.79 770.11 771.12 770.11 771.1 727.73 757.26 727.73 757.27 746.54 738.43 727.7 728.64 737.49"/><polygon class="cls-1" points="798.75 807.6 817.52 826.38 798.9 826.38 798.9 840.22 841.23 840.22 841.21 797.84 827.37 797.84 827.38 816.65 808.54 797.81 798.75 807.6"/><polygon class="cls-1" points="868.86 877.71 887.63 896.48 869.01 896.48 869.01 910.33 911.34 910.33 911.32 867.94 897.48 867.95 897.48 886.76 878.64 867.92 868.86 877.71"/><polygon class="cls-1" points="387.45 526.72 406.23 545.5 387.6 545.5 387.6 559.34 429.94 559.34 429.92 516.96 416.07 516.97 416.08 535.78 397.24 516.94 387.45 526.72"/><polygon class="cls-1" points="448.65 596.83 467.43 615.61 448.8 615.61 448.8 629.45 491.13 629.45 491.11 587.07 477.27 587.07 477.28 605.88 458.44 587.04 448.65 596.83"/><polygon class="cls-1" points="518.76 666.94 537.53 685.72 518.91 685.72 518.91 699.56 561.24 699.56 561.22 657.17 547.38 657.18 547.39 675.99 528.55 657.15 518.76 666.94"/><polygon class="cls-1" points="588.87 737.05 607.64 755.82 589.02 755.82 589.02 769.67 631.35 769.67 631.33 727.28 617.49 727.29 617.5 746.1 598.65 727.26 588.87 737.05"/><polygon class="cls-1" points="658.98 807.16 677.75 825.93 659.12 825.93 659.12 839.77 701.46 839.77 701.44 797.39 687.59 797.4 687.6 816.21 668.76 797.37 658.98 807.16"/><polygon class="cls-1" points="729.08 877.26 747.86 896.04 729.23 896.04 729.23 909.88 771.57 909.88 771.54 867.5 757.7 867.51 757.71 886.32 738.87 867.48 729.08 877.26"/><polygon class="cls-1" points="247.68 526.28 266.45 545.06 247.83 545.06 247.83 558.9 290.16 558.9 290.14 516.52 276.3 516.52 276.31 535.33 257.47 516.49 247.68 526.28"/><polygon class="cls-1" points="308.88 596.39 327.65 615.16 309.03 615.16 309.03 629.01 351.36 629.01 351.34 586.62 337.5 586.63 337.51 605.44 318.67 586.6 308.88 596.39"/><polygon class="cls-1" points="378.99 666.5 397.76 685.27 379.13 685.27 379.13 699.12 421.47 699.12 421.45 656.73 407.61 656.74 407.61 675.55 388.77 656.71 378.99 666.5"/><polygon class="cls-1" points="449.09 736.61 467.87 755.38 449.24 755.38 449.24 769.22 491.58 769.22 491.56 726.84 477.71 726.85 477.72 745.66 458.88 726.82 449.09 736.61"/><polygon class="cls-1" points="519.2 806.71 537.98 825.49 519.35 825.49 519.35 839.33 561.68 839.33 561.66 796.95 547.82 796.96 547.83 815.76 528.99 796.92 519.2 806.71"/><polygon class="cls-1" points="589.31 876.82 608.08 895.6 589.46 895.6 589.46 909.44 631.79 909.44 631.77 867.06 617.93 867.06 617.94 885.87 599.1 867.03 589.31 876.82"/><polygon class="cls-1" points="107.91 525.84 126.68 544.61 108.06 544.61 108.06 558.46 150.39 558.46 150.37 516.07 136.53 516.08 136.54 534.89 117.7 516.05 107.91 525.84"/><polygon class="cls-1" points="169.1 595.95 187.88 614.72 169.25 614.72 169.25 628.56 211.59 628.56 211.57 586.18 197.72 586.19 197.73 605 178.89 586.16 169.1 595.95"/><polygon class="cls-1" points="239.21 666.05 257.99 684.83 239.36 684.83 239.36 698.67 281.69 698.67 281.68 656.29 267.83 656.3 267.84 675.11 249 656.27 239.21 666.05"/><polygon class="cls-1" points="309.32 736.16 328.1 754.94 309.47 754.94 309.47 768.78 351.8 768.78 351.78 726.4 337.94 726.4 337.95 745.21 319.11 726.37 309.32 736.16"/><polygon class="cls-1" points="379.43 806.27 398.2 825.04 379.58 825.04 379.58 838.89 421.91 838.89 421.89 796.5 408.05 796.51 408.06 815.32 389.22 796.48 379.43 806.27"/><polygon class="cls-1" points="449.54 876.38 468.31 895.15 449.69 895.15 449.69 909 492.02 909 492 866.61 478.16 866.62 478.17 885.43 459.32 866.59 449.54 876.38"/><polygon class="cls-1" points="29.33 595.5 48.1 614.28 29.48 614.28 29.48 628.12 71.81 628.12 71.79 585.74 57.95 585.74 57.96 604.55 39.12 585.71 29.33 595.5"/><polygon class="cls-1" points="99.44 665.61 118.21 684.39 99.59 684.39 99.59 698.23 141.92 698.23 141.9 655.85 128.06 655.85 128.07 674.66 109.23 655.82 99.44 665.61"/><polygon class="cls-1" points="169.55 735.72 188.32 754.49 169.7 754.49 169.7 768.34 212.03 768.34 212.01 725.95 198.17 725.96 198.18 744.77 179.34 725.93 169.55 735.72"/><polygon class="cls-1" points="239.66 805.83 258.43 824.6 239.81 824.6 239.81 838.45 282.14 838.45 282.12 796.06 268.27 796.07 268.28 814.88 249.44 796.04 239.66 805.83"/><polygon class="cls-1" points="309.76 875.94 328.54 894.71 309.91 894.71 309.91 908.55 352.25 908.55 352.23 866.17 338.38 866.18 338.39 884.99 319.55 866.15 309.76 875.94"/><polygon class="cls-1" points="29.77 735.28 48.55 754.05 29.92 754.05 29.92 767.89 72.26 767.89 72.24 725.51 58.39 725.52 58.4 744.33 39.56 725.49 29.77 735.28"/><polygon class="cls-1" points="99.88 805.38 118.66 824.16 100.03 824.16 100.03 838 142.37 838 142.34 795.62 128.5 795.63 128.51 814.44 109.67 795.6 99.88 805.38"/><polygon class="cls-1" points="169.99 875.49 188.76 894.27 170.14 894.27 170.14 908.11 212.47 908.11 212.45 865.73 198.61 865.73 198.62 884.54 179.78 865.7 169.99 875.49"/><polygon class="cls-1" points="30.22 875.05 48.99 893.82 30.37 893.82 30.37 907.67 72.7 907.67 72.68 865.28 58.84 865.29 58.85 884.1 40.01 865.26 30.22 875.05"/><polygon class="cls-1" points="946.33 949.8 965.1 968.58 946.47 968.58 946.47 982.42 988.81 982.42 988.79 940.04 974.94 940.04 974.95 958.85 956.11 940.01 946.33 949.8"/><polygon class="cls-1" points="1007.52 1019.91 1026.3 1038.68 1007.67 1038.68 1007.67 1052.53 1050 1052.53 1049.98 1010.14 1036.14 1010.15 1036.15 1028.96 1017.31 1010.12 1007.52 1019.91"/><polygon class="cls-1" points="806.55 949.36 825.33 968.13 806.7 968.13 806.7 981.98 849.03 981.98 849.01 939.59 835.17 939.6 835.18 958.41 816.34 939.57 806.55 949.36"/><polygon class="cls-1" points="867.75 1019.47 886.52 1038.24 867.9 1038.24 867.9 1052.08 910.23 1052.08 910.21 1009.7 896.37 1009.71 896.38 1028.52 877.54 1009.68 867.75 1019.47"/><polygon class="cls-1" points="666.78 948.91 685.55 967.69 666.93 967.69 666.93 981.53 709.26 981.53 709.24 939.15 695.4 939.16 695.41 957.97 676.57 939.13 666.78 948.91"/><polygon class="cls-1" points="727.98 1019.02 746.75 1037.8 728.13 1037.8 728.13 1051.64 770.46 1051.64 770.44 1009.26 756.59 1009.26 756.6 1028.07 737.76 1009.23 727.98 1019.02"/><polygon class="cls-1" points="527 948.47 545.78 967.25 527.15 967.25 527.15 981.09 569.49 981.09 569.47 938.71 555.63 938.71 555.63 957.52 536.79 938.68 527 948.47"/><polygon class="cls-1" points="588.2 1018.58 606.98 1037.36 588.35 1037.36 588.35 1051.2 630.68 1051.2 630.66 1008.82 616.82 1008.82 616.83 1027.63 597.99 1008.79 588.2 1018.58"/><polygon class="cls-1" points="387.23 948.03 406.01 966.8 387.38 966.8 387.38 980.65 429.71 980.65 429.69 938.26 415.85 938.27 415.86 957.08 397.02 938.24 387.23 948.03"/><polygon class="cls-1" points="448.43 1018.14 467.2 1036.91 448.58 1036.91 448.58 1050.76 490.91 1050.76 490.89 1008.37 477.05 1008.38 477.06 1027.19 458.22 1008.35 448.43 1018.14"/><polygon class="cls-1" points="247.46 947.59 266.23 966.36 247.61 966.36 247.61 980.2 289.94 980.2 289.92 937.82 276.08 937.83 276.09 956.64 257.25 937.8 247.46 947.59"/><polygon class="cls-1" points="308.66 1017.69 327.43 1036.47 308.81 1036.47 308.81 1050.31 351.14 1050.31 351.12 1007.93 337.27 1007.93 337.28 1026.74 318.44 1007.9 308.66 1017.69"/><polygon class="cls-1" points="107.69 947.14 126.46 965.92 107.84 965.92 107.84 979.76 150.17 979.76 150.15 937.38 136.31 937.38 136.31 956.19 117.47 937.35 107.69 947.14"/><polygon class="cls-1" points="168.88 1017.25 187.66 1036.03 169.03 1036.03 169.03 1049.87 211.37 1049.87 211.34 1007.49 197.5 1007.49 197.51 1026.3 178.67 1007.46 168.88 1017.25"/><polygon class="cls-1" points="29.11 1016.81 47.88 1035.58 29.26 1035.58 29.26 1049.42 71.59 1049.42 71.57 1007.04 57.73 1007.05 57.74 1025.86 38.9 1007.02 29.11 1016.81"/><rect class="cls-2" width="1080" height="1080"/></g></svg>
