<svg xmlns="http://www.w3.org/2000/svg" viewBox="0 0 1080 1080" width="1080" height="1080"><defs><style>.cls-1{fill:#ffc80c;}.cls-2{fill:none;}</style></defs><title>facebook-profile-overlay20200212</title><g id="Layer_2" data-name="Layer 2"><path class="cls-1" d="M299.55,578.65v88.42H273.94V654.68c-8.07,9.71-20.88,16.14-39.21,16.14-35.35,0-57.73-24.73-57.73-54v-63c0-31.26,23.32-56.82,61.65-56.82,37.4,0,59.77,24.72,59.77,54.87v2.38H267.27v-2.38c0-15.19-10.52-27.88-28.62-27.88-19.51,0-30.39,13.34-30.39,29.93v59.73c0,17.72,11,30.19,31.21,30.19,18.59,0,31.32-10.08,31.32-30.09v-8.58H237.88v-26.5Z"/><path class="cls-1" d="M417.59,625.06v1.33c0,24.78-19,43.72-51,43.72s-50.83-19.86-50.83-45.91V583c0-25.9,18.74-45.91,50.18-45.91,32,0,50.59,20,50.59,46v29.07H344.42v11.65c0,12.27,7.76,21.47,22.2,21.47S389.1,636.92,389.1,626v-1Zm-73.17-41.63V589h43.52v-5.53c0-12.17-7.53-21.52-22-21.52C351.93,562,344.42,571.31,344.42,583.43Z"/><path class="cls-1" d="M498.83,537.05V564.8h-8.54c-16.59,0-27.81,9.48-27.81,26.62v75.65H433.86v-127H460v14.42c6.84-10.79,18-17.46,34.08-17.46Z"/><path class="cls-1" d="M670,667.07H641.48l-.14-85.6c0-11.85-6-19.51-18.28-19.51-12,0-19,8-19,20.37v84.74H575.43v-85.6c0-11.85-6-19.51-18.28-19.51-11.12,0-18,6.72-19,17.41v87.7H509.51v-127h26.13v10.63c6.29-8.47,16-13.67,29.39-13.67,14.13,0,24.73,5.42,31.29,13.86,6.69-8.59,17.13-13.86,31.76-13.86,26.68,0,41.89,17.88,41.89,39.59Z"/><path class="cls-1" d="M784.06,583v84.06H759v-9c-6.76,7.06-16.83,12-30.79,12-28.36,0-44-17.38-44-39.69s16.56-39.69,46.33-39.69c10.29,0,18.47,2.72,24.77,7V583.35c0-12.87-6.81-21.39-19.42-21.39-11.69,0-19.43,6.88-19.43,18.11v2.14H687.86v-2.35c0-25,19-42.81,48-42.81C766.06,537.05,784.06,557.06,784.06,583Zm-27.57,47.41c0-9.74-7-18.26-21.44-18.26-13.81,0-21.84,8.52-21.84,18.26s8,18.16,21.84,18.16C749.46,648.58,756.49,640.16,756.49,630.42Z"/><path class="cls-1" d="M903,577.66v89.41H874.37V583.45c0-13-6.83-21.49-20.69-21.49-13,0-20.58,8.42-20.58,21.49v83.62H804.48v-127h26.13v11c6.37-8.72,16.26-14.06,30-14.06C888,537.05,903,555.32,903,577.66Z"/><path class="cls-1" d="M446.48,736.38,371.23,852h74.85v26.87H334V855l74.64-115.61H336.56V712.51H446.48Z"/><path class="cls-1" d="M558.22,836.84v1.33c0,24.78-19,43.72-51,43.72S456.43,862,456.43,836V794.74c0-25.9,18.74-45.91,50.17-45.91,32,0,50.6,20,50.6,46v29.07H485.05v11.65c0,12.27,7.76,21.47,22.2,21.47s22.48-8.28,22.48-19.18v-1Zm-73.17-41.63v5.58h43.52v-5.53c0-12.17-7.53-21.52-22-21.52C492.56,773.74,485.05,783.09,485.05,795.21Z"/><path class="cls-1" d="M639.46,748.83v27.75h-8.54c-16.59,0-27.81,9.48-27.81,26.61v75.66H574.49v-127h26.12v14.42c6.84-10.79,18-17.46,34.08-17.46Z"/><path class="cls-1" d="M746,794.74V836c0,25.9-18.74,45.91-50.59,45.91s-50.6-20-50.6-45.91V794.74c0-25.9,18.75-45.91,50.6-45.91S746,768.84,746,794.74Zm-50.59-21c-14.19,0-22,9.35-22,21.47v40.3c0,12.12,7.78,21.47,22,21.47s22-9.35,22-21.47v-40.3C717.37,783.09,709.58,773.74,695.4,773.74Z"/><polygon class="cls-1" points="436.88 266.11 436.88 297 531.35 297 531.3 202.42 500.41 202.44 500.43 244.41 454.28 198.26 432.44 220.1 478.44 266.11 436.88 266.11"/><path class="cls-1" d="M626.38,207.56a132.34,132.34,0,0,0-92.59-37.13v30.89c55.32,0,100.32,43.28,100.32,96.49s-45,96.49-100.32,96.49S433.48,351,433.48,297.81H402.59c0,34.12,13.71,66.17,38.61,90.25a134,134,0,0,0,185.18,0C651.29,364,665,331.93,665,297.81S651.29,231.63,626.38,207.56Z"/><rect class="cls-2" width="1080" height="1080"/></g></svg>
