<svg xmlns="http://www.w3.org/2000/svg" viewBox="0 0 1080 1080" width="1080" height="1080"><defs><style>.cls-1{fill:#ffc80c;}.cls-2{fill:#fff;}.cls-3{fill:#191919;}.cls-4{fill:none;}</style></defs><title>facebook-profile-overlay20200212</title><g id="Layer_2" data-name="Layer 2"><path class="cls-1" d="M540,1042.5A502.61,502.61,0,0,1,344.38,77a502.61,502.61,0,0,1,391.24,926A499.29,499.29,0,0,1,540,1042.5Zm0-877.16A374.64,374.64,0,1,0,804.93,275.07,372.23,372.23,0,0,0,540,165.34Z"/><path class="cls-2" d="M540,914.66A375.46,375.46,0,0,0,887.74,680H192.26A375.46,375.46,0,0,0,540,914.66Z"/><path class="cls-3" d="M207.05,872.39l25.81-26.66-4.66-4.51,7.1-7.34,4.66,4.51,3.85-4q6-6.17,11.61-5.75t11,5.58l3.77,3.65-7.23,7.47-2.4-2.32q-2.27-2.19-4.08-2.23t-3.88,2.09l-3.85,4,7.34,7.1-7.1,7.33-7.34-7.1-25.8,26.66Z"/><path class="cls-3" d="M243.84,907.07q-6.94-5.52-7.28-12.84t6.3-15.7l16.6-20.92,9.49,7.53-15.89,20q-3.8,4.79-3.86,8.87t4.11,7.4a10.8,10.8,0,0,0,8.79,2.35q4.83-.79,8.86-5.88l15.18-19.13,9.56,7.59-29.4,37.06-8.45-6.7,4.24-6.86a16.62,16.62,0,0,1-9.12,1.28A18.48,18.48,0,0,1,243.84,907.07Zm30.93-45.59a5.86,5.86,0,0,1-.95-8.31,5.91,5.91,0,1,1,5.31,9.57A5.73,5.73,0,0,1,274.77,861.48Zm13.45,10.67a5.86,5.86,0,0,1-1-8.31,5.87,5.87,0,0,1,8.31-1,5.86,5.86,0,0,1,.95,8.31,5.65,5.65,0,0,1-3.95,2.22A5.73,5.73,0,0,1,288.22,872.15Z"/><path class="cls-3" d="M277.52,930.79,303,890.9l9.17,5.85-3.81,8.09a19.83,19.83,0,0,1,9.84-2.38,19.58,19.58,0,0,1,10.26,3.32l-6.92,10.86-2.89-1.85a19.59,19.59,0,0,0-6.7-2.8,9.65,9.65,0,0,0-6.45,1q-3.13,1.62-6.06,6.21l-11.59,18.17Z"/><path class="cls-3" d="M329.58,962l26.47-61.3,20.93,9q10.77,4.65,16.09,11.47a26.2,26.2,0,0,1,5.72,15.15,44,44,0,0,1-14,32.31,26.2,26.2,0,0,1-14.94,6.22q-8.61.8-19.38-3.85ZM345,957.25l9.19,4q7.71,3.33,13.25,2.76a15.5,15.5,0,0,0,9.5-4.42,37.29,37.29,0,0,0,9.77-22.63,15.63,15.63,0,0,0-3.25-10q-3.37-4.47-11.08-7.8l-9.19-4Z"/><path class="cls-3" d="M416.15,995.7a25.84,25.84,0,0,1-11.42-6.32,22.08,22.08,0,0,1-6.08-10.59,25.48,25.48,0,0,1,.37-13.16,27,27,0,0,1,6.47-11.76,22.52,22.52,0,0,1,10.65-6.32,25.34,25.34,0,0,1,13.31.37,24.28,24.28,0,0,1,11.05,6.22,21.9,21.9,0,0,1,5.82,10.27,23.45,23.45,0,0,1-.24,12.15q-.29,1-.63,2.1c-.24.73-.49,1.48-.78,2.26L410,971.34a12.4,12.4,0,0,0,1.41,9.4,12.17,12.17,0,0,0,7.3,5.28,11.15,11.15,0,0,0,6.47.06A10.36,10.36,0,0,0,430,982.9l11.95,3.3a22.55,22.55,0,0,1-6.45,6.68,21.79,21.79,0,0,1-8.89,3.53A24.11,24.11,0,0,1,416.15,995.7Zm10.66-38.22a13,13,0,0,0-8.31.33,11.71,11.71,0,0,0-6.27,6.23l22.71,6.28a10.34,10.34,0,0,0-1.33-8.09A11.41,11.41,0,0,0,426.81,957.48Z"/><path class="cls-3" d="M468.71,1007q-8.79-1.26-12.76-7.43t-2.45-16.74l3.82-26.43,12,1.73-3.65,25.3q-.89,6,1.11,9.61t7.28,4.33a10.79,10.79,0,0,0,8.78-2.4q3.78-3.11,4.7-9.53L491,961.26,503.11,963l-6.77,46.83-10.66-1.54.2-8.07a16.63,16.63,0,0,1-7.24,5.7A18.46,18.46,0,0,1,468.71,1007Z"/><path class="cls-3" d="M530.91,1011.39q-7.44-.27-11.78-4.07t-4-13l.79-20.59-8.1-.31.39-10.2,8.11.31,1.91-12.62,10.77.41L528.53,964l12.77.49-.39,10.2-12.78-.49-.79,20.68q-.14,3.43,1.3,4.78t5.05,1.48l5.91.22-.4,10.39Z"/><path class="cls-3" d="M570.15,1011.8a27.87,27.87,0,0,1-11.17-1.41,19.12,19.12,0,0,1-7.94-5.24,16.4,16.4,0,0,1-3.9-8.18l12.28-.7a8,8,0,0,0,3.36,4.54,10.44,10.44,0,0,0,6.64,1.58q4-.23,5.76-1.95a4.83,4.83,0,0,0,1.65-3.82,4.12,4.12,0,0,0-2.9-4,48.46,48.46,0,0,0-7.55-1.72c-2.06-.32-4.15-.75-6.29-1.26a29,29,0,0,1-5.89-2.1,12.69,12.69,0,0,1-4.46-3.57,9.9,9.9,0,0,1-2-5.67,13.46,13.46,0,0,1,4.4-10.86q4.77-4.56,13.81-5.08,8.37-.48,13.6,3.14a15.85,15.85,0,0,1,6.56,10.43l-11.52.65q-1.35-5.18-8.2-4.79a9,9,0,0,0-5.21,1.64,4,4,0,0,0-1.67,3.44q.12,2.08,3,3.17a40.33,40.33,0,0,0,7.47,1.87q5,.87,9.23,2a15.27,15.27,0,0,1,6.86,3.72q2.63,2.57,2.91,7.62a13.3,13.3,0,0,1-1.83,8,15.92,15.92,0,0,1-6.55,5.92A25.8,25.8,0,0,1,570.15,1011.8Z"/><path class="cls-3" d="M625,1005.38a25.32,25.32,0,0,1-13.13-.89,22.83,22.83,0,0,1-10.11-7.14A27.54,27.54,0,0,1,597.36,972a22.91,22.91,0,0,1,7.08-10.15,25.39,25.39,0,0,1,12-5.3q8.93-1.56,15.85,2a21.13,21.13,0,0,1,10,11.46l-12.68,2.22a9.4,9.4,0,0,0-4.64-4.66A11.85,11.85,0,0,0,610.39,972q-2.82,4.37-1.65,11t5.3,9.82a11.27,11.27,0,0,0,9.12,2.28,11.6,11.6,0,0,0,6.2-3,9.27,9.27,0,0,0,2.77-6l12.69-2.22A21.59,21.59,0,0,1,639.24,998,24,24,0,0,1,625,1005.38Z"/><path class="cls-3" d="M660.11,997.19l-20.29-65.61L651.48,928l8.46,27.34a17.13,17.13,0,0,1,4.33-7.78,19,19,0,0,1,8.22-4.89q8.38-2.6,14.62,1.27t9.4,14.07l7.89,25.52-11.57,3.58-7.56-24.43q-1.8-5.82-5.08-8.21t-8.3-.83a11.18,11.18,0,0,0-7.08,6q-2.17,4.46-.25,10.66l7.21,23.33Z"/><path class="cls-3" d="M715.38,978.74l-26-63.56,11.3-4.63,26,63.56Z"/><path class="cls-3" d="M753.5,963a22.34,22.34,0,0,1-9.81,2.83,13.57,13.57,0,0,1-7.55-2,13.83,13.83,0,0,1-5-5.5,13,13,0,0,1-.29-11.85q2.72-6,11.88-10.7l10.7-5.49-.53-1q-2.22-4.34-5.72-5.11a10.39,10.39,0,0,0-7.16,1.1,11.78,11.78,0,0,0-5,4.53,7.57,7.57,0,0,0-.69,6.19l-10.61,5.44a16.69,16.69,0,0,1-1-9.57,19.48,19.48,0,0,1,4.24-8.77,26.91,26.91,0,0,1,8.57-6.69q9-4.62,16.48-2.77t11.71,10.07l13.27,25.89-9.25,4.75-4.5-6.27a17.62,17.62,0,0,1-2.35,8.28A17.37,17.37,0,0,1,753.5,963Zm-1.89-9.75a10.11,10.11,0,0,0,5.69-6.77,16.68,16.68,0,0,0-.61-9.24L747.44,942c-2.89,1.48-4.68,3.06-5.39,4.74a5.49,5.49,0,0,0,.11,4.83A5,5,0,0,0,746,954.4,9.15,9.15,0,0,0,751.61,953.23Z"/><path class="cls-3" d="M788.67,942.78l-26.6-39.13,8.92-6.06,5.29,6.09a16.66,16.66,0,0,1,1.49-9.09,18.76,18.76,0,0,1,6.69-7.55q7.26-4.92,14.39-3.09T812,894.63l15,22.09-10.1,6.86-14.37-21.14q-3.43-5.06-7.31-6.34T787,897.76a10.88,10.88,0,0,0-4.94,7.75q-.69,4.85,3,10.21l13.73,20.19Z"/><path class="cls-3" d="M854.87,894.74a22.27,22.27,0,0,1-11.06,5.51,23.21,23.21,0,0,1-12.09-1.11,28.15,28.15,0,0,1-17-19A23.06,23.06,0,0,1,815.1,868a22.37,22.37,0,0,1,6.78-10.32,20.65,20.65,0,0,1,8.31-4.72,16.79,16.79,0,0,1,8.59-.11l-18.53-20.8,9.11-8.12,45.69,51.28-8.12,7.23-5.5-4.17a22,22,0,0,1-.84,8.16A18.1,18.1,0,0,1,854.87,894.74Zm-5.18-9.69a12.8,12.8,0,0,0,4.59-9.4,15.57,15.57,0,0,0-13.51-15.17,12.74,12.74,0,0,0-9.86,3.49,12.9,12.9,0,0,0-4.6,9.32,13.88,13.88,0,0,0,3.88,10.09,14.17,14.17,0,0,0,9.64,5.08A12.72,12.72,0,0,0,849.69,885.05Z"/><path class="cls-3" d="M164.68,394.67l-61.13-28.31,9.67-20.87q5-10.74,12-15.92a26.44,26.44,0,0,1,15.42-5.37,39.86,39.86,0,0,1,17.66,4.1,39.81,39.81,0,0,1,14.56,10.82,26.44,26.44,0,0,1,5.88,15.24q.59,8.7-4.39,19.44ZM160.25,379l4.24-9.17q3.56-7.68,3.13-13.29a15.62,15.62,0,0,0-4.2-9.69A32.86,32.86,0,0,0,153,339.74a33,33,0,0,0-12.16-3.3,15.81,15.81,0,0,0-10.19,3q-4.61,3.29-8.16,11l-4.24,9.17Z"/><path class="cls-3" d="M205.33,319.54a26.13,26.13,0,0,1-9.56,9,22.22,22.22,0,0,1-12,2.62,25.57,25.57,0,0,1-12.54-4.36,27.09,27.09,0,0,1-9.35-9.8A22.59,22.59,0,0,1,159,304.89a25.39,25.39,0,0,1,4.4-12.69,24.59,24.59,0,0,1,9.34-8.74A22.2,22.2,0,0,1,184.41,281,23.77,23.77,0,0,1,196,284.92c.59.39,1.2.8,1.83,1.25s1.27.92,1.93,1.43L180,318a12.45,12.45,0,0,0,9.47,1.5,12.24,12.24,0,0,0,7.3-5.41,11.17,11.17,0,0,0,2-6.2,10.39,10.39,0,0,0-1.6-5.57L204,291.85a22.7,22.7,0,0,1,4.46,8.23,22.27,22.27,0,0,1,.69,9.63A24.53,24.53,0,0,1,205.33,319.54Zm-33.52-21.89a13.1,13.1,0,0,0-2.21,8.08,11.86,11.86,0,0,0,4.08,7.94l12.95-19.93a10.4,10.4,0,0,0-8.18-1.19A11.51,11.51,0,0,0,171.81,297.65Z"/><path class="cls-3" d="M221,294.9,184,264.82l6.91-8.52,7.68,4.74a19.93,19.93,0,0,1-1.26-10.12,19.7,19.7,0,0,1,4.51-9.91l10.08,8.18-2.18,2.69a19.67,19.67,0,0,0-3.58,6.39,9.81,9.81,0,0,0,.24,6.58c.85,2.22,2.69,4.47,5.53,6.78l16.89,13.7Z"/><path class="cls-3" d="M260.82,250.2l-37-38.42-6.18,9.55-6.53-6.8,6.71-16.47,5.48-5.27L270,241.32Z"/><path class="cls-3" d="M280,247.41l-11.43-21.76,9.06-7.77,8.5,24.27Z"/><path class="cls-3" d="M309.91,210.77A28.87,28.87,0,0,1,298,216.06a20.67,20.67,0,0,1-11-1,21.7,21.7,0,0,1-8.86-6.39l9.8-7a11.79,11.79,0,0,0,7.44,3.15,12.85,12.85,0,0,0,8.41-2.63,11.13,11.13,0,0,0,4.88-8.32,14.54,14.54,0,0,0-2.92-10q-3.51-4.94-8.37-5.85a11.42,11.42,0,0,0-9.07,2.1,13.23,13.23,0,0,0-4.89,6.08,11.92,11.92,0,0,0-.61,6.93l-9.64,6.87-17.63-34.69L286,143.7l6.25,8.78-22.88,16.3,6.54,14.48a15.77,15.77,0,0,1,2.5-6.44,21.48,21.48,0,0,1,5.79-6,21.1,21.1,0,0,1,11.67-4.36,20.89,20.89,0,0,1,10.87,2.65,26,26,0,0,1,8.65,7.84,25.42,25.42,0,0,1,4.8,11.94,22.52,22.52,0,0,1-1.87,12A24.42,24.42,0,0,1,309.91,210.77Z"/><path class="cls-3" d="M322.24,173.62l-4.9-9.06,35.47-19.18,4.89,9.06Z"/><path class="cls-3" d="M401.78,162.1a31.46,31.46,0,0,1-17.12,1.71,29.4,29.4,0,0,1-14.56-7.49,39.29,39.29,0,0,1-10-15.56,39.39,39.39,0,0,1-2.51-18.61,30.15,30.15,0,0,1,6.62-15.68,34.67,34.67,0,0,1,15.28-10.42q11.1-4.1,20.38-1.47a25.82,25.82,0,0,1,14.91,11.21l-12.9,4.77a13.55,13.55,0,0,0-7.79-5,18.65,18.65,0,0,0-10.67,1.12q-9.46,3.5-12.4,11.4t.94,18.37q3.87,10.47,11.09,14.32t16,.61q8.56-3.16,11.23-9.43t.77-14.18l-16,5.9-3.2-8.66,27.62-10.21,12.84,34.75-10.65,3.94-4-8a22.53,22.53,0,0,1-5.1,9.78Q408.91,159.47,401.78,162.1Z"/><path class="cls-3" d="M438.66,149l-10.73-46.5L438.62,100l3.13,8.46A20,20,0,0,1,447,99.68a19.69,19.69,0,0,1,9.65-5.05l2.92,12.66-3.37.78a19.53,19.53,0,0,0-6.75,2.84,9.69,9.69,0,0,0-3.86,5.34c-.7,2.26-.63,5.18.19,8.74l4.89,21.19Z"/><path class="cls-3" d="M487.36,140.58a22.66,22.66,0,0,1-10.27-.72,13.68,13.68,0,0,1-6.47-4.48,14,14,0,0,1-2.79-6.93,13.1,13.1,0,0,1,3.83-11.33q4.65-4.74,15-6l12-1.49-.14-1.14q-.6-4.87-3.66-6.82a10.54,10.54,0,0,0-7.16-1.45,12,12,0,0,0-6.27,2.57,7.67,7.67,0,0,0-2.8,5.63l-11.93,1.48a16.75,16.75,0,0,1,2.37-9.41,19.81,19.81,0,0,1,7.06-6.84,27,27,0,0,1,10.44-3.37Q496.7,89,503.15,93.35T510.74,107l3.6,29.12-10.41,1.29-2.09-7.5a18,18,0,0,1-5.09,7A17.55,17.55,0,0,1,487.36,140.58Zm1.59-9.89a10.23,10.23,0,0,0,7.74-4.45,16.85,16.85,0,0,0,2.63-8.95l-10.41,1.28q-4.87.6-6.76,2.63a5.54,5.54,0,0,0-1.56,4.61,5,5,0,0,0,2.63,4A9.28,9.28,0,0,0,489,130.69Z"/><path class="cls-3" d="M542.36,136.87a22.49,22.49,0,0,1-12-3.46,23.45,23.45,0,0,1-8.22-9.09,26.57,26.57,0,0,1-2.87-12.94,26.24,26.24,0,0,1,3.29-12.79,23.15,23.15,0,0,1,8.51-8.72,22.7,22.7,0,0,1,12.08-3A20.71,20.71,0,0,1,552.56,89,16.89,16.89,0,0,1,559,94.8l.46-28.09,12.31.19-1.12,69.28-11-.18-1.23-6.85a22.14,22.14,0,0,1-6.2,5.48A18.17,18.17,0,0,1,542.36,136.87Zm2.77-10.73A12.87,12.87,0,0,0,555,122.3a15.7,15.7,0,0,0,.33-20.49,12.87,12.87,0,0,0-9.7-4.15,13,13,0,0,0-9.78,3.79,13.94,13.94,0,0,0-4,10.13,14.32,14.32,0,0,0,3.68,10.36A12.86,12.86,0,0,0,545.13,126.14Z"/><path class="cls-3" d="M579.91,114.22,581.3,104l40,5.42-1.39,10.2Z"/><path class="cls-3" d="M623.09,143.14,640.5,78.07l11.9,3.19-7,26.3L676.47,87.7l14.69,3.92-30.89,19.43,14.14,45.82L659.81,153l-10.53-35.09-8,5.12L635,146.33Z"/><path class="cls-3" d="M677.17,158.89,701.39,94l11.54,4.31L688.71,163.2Z"/><path class="cls-3" d="M696.92,166.51l19-43.78,11.3,4.91-19,43.78Zm27.62-48.12a7.75,7.75,0,0,1-4.27-4.06,6.66,6.66,0,0,1,.05-5.54,6.54,6.54,0,0,1,4-3.77,8.76,8.76,0,0,1,10.15,4.41,6.57,6.57,0,0,1,0,5.5,6.69,6.69,0,0,1-4,3.81A7.76,7.76,0,0,1,724.54,118.39Z"/><path class="cls-3" d="M715.82,172.94,740.37,132l9.33,5.59-2.41,6.08a16.94,16.94,0,0,1,8.09-1.6,18.17,18.17,0,0,1,8.61,2.75q9.48,5.7,9,15.41a18.61,18.61,0,0,1,9.2-1.77,20.19,20.19,0,0,1,9.4,2.94q8,4.8,9.42,12.17t-4.12,16.6l-13.86,23.1L772.51,207l13.26-22.12q3.18-5.28,2.83-9.3c-.22-2.68-1.74-4.86-4.54-6.54a9.91,9.91,0,0,0-8.77-1q-4.49,1.57-7.85,7.19L754.77,196.3,744.21,190l13.26-22.12q3.16-5.28,2.79-9.32c-.25-2.7-1.81-4.9-4.67-6.62a9.83,9.83,0,0,0-8.69-.95q-4.49,1.59-7.84,7.19l-12.68,21.12Z"/><path class="cls-3" d="M798.67,229.42a22.58,22.58,0,0,1-6.41-8,13.63,13.63,0,0,1-1.06-7.8,13.85,13.85,0,0,1,3.21-6.74A13.15,13.15,0,0,1,805.35,202q6.64.22,14.55,7l9.23,7.86.75-.87q3.18-3.74,2.56-7.31a10.52,10.52,0,0,0-3.78-6.25,12,12,0,0,0-6.13-2.89,7.67,7.67,0,0,0-6,1.75l-9.16-7.8a16.84,16.84,0,0,1,8.54-4.61,19.71,19.71,0,0,1,9.81.58,27.08,27.08,0,0,1,9.54,5.42q7.77,6.61,8.93,14.3t-4.89,14.79l-19,22.34-8-6.8,4.12-6.61a17.84,17.84,0,0,1-8.63,1A17.43,17.43,0,0,1,798.67,229.42Zm8.37-5.51a10.25,10.25,0,0,0,8.51,2.7,16.83,16.83,0,0,0,8.37-4.12l-8-6.8q-3.74-3.18-6.5-3.2a5.5,5.5,0,0,0-4.45,2,5,5,0,0,0-1.2,4.67A9.3,9.3,0,0,0,807,223.91Z"/><path class="cls-3" d="M809.12,264.67l51.2-46.1,7.34,8.15-4.18,5.57a22,22,0,0,1,8.24.81,18.16,18.16,0,0,1,8.39,5.72A22.37,22.37,0,0,1,885.72,250a23.49,23.49,0,0,1-1,12.2,28.48,28.48,0,0,1-19.13,17.23,23.26,23.26,0,0,1-12.18-.3,22.79,22.79,0,0,1-10.45-6.78,20.86,20.86,0,0,1-4.8-8.36,16.85,16.85,0,0,1-.16-8.66l-20.6,18.54Zm40.07-1.51a13.06,13.06,0,0,0,9.44,4.58,14,14,0,0,0,10.15-4,14.34,14.34,0,0,0,5.08-9.75,13.83,13.83,0,0,0-13-14.51,15.7,15.7,0,0,0-15.23,13.72A12.87,12.87,0,0,0,849.19,263.16Z"/><path class="cls-3" d="M862.57,294.29l55.69-41.21,7.33,9.9-55.7,41.21Z"/><path class="cls-3" d="M882.42,324.91a22.64,22.64,0,0,1-3.6-9.64,13.66,13.66,0,0,1,1.41-7.75,14.06,14.06,0,0,1,5.15-5.41,13.13,13.13,0,0,1,11.91-1.19q6.24,2.26,11.66,11.13l6.33,10.34,1-.6c2.79-1.71,4.35-3.76,4.7-6.15a10.5,10.5,0,0,0-1.65-7.11,11.81,11.81,0,0,0-4.94-4.65,7.66,7.66,0,0,0-6.28-.22l-6.28-10.26a16.89,16.89,0,0,1,9.55-1.73,19.8,19.8,0,0,1,9.14,3.6,27,27,0,0,1,7.39,8.11q5.33,8.7,4,16.37t-9.24,12.54l-25,15.33-5.48-8.95,6-5a17.85,17.85,0,0,1-8.51-1.73A17.47,17.47,0,0,1,882.42,324.91Zm9.66-2.64a10.21,10.21,0,0,0,7.25,5.21,16.93,16.93,0,0,0,9.24-1.31l-5.48-8.95q-2.57-4.19-5.18-5.06a5.47,5.47,0,0,0-4.84.48,5,5,0,0,0-2.59,4.07A9.24,9.24,0,0,0,892.08,322.27Z"/><path class="cls-3" d="M900.67,353.2l43.56-19.5,4.44,9.92-7,4.18a16.87,16.87,0,0,1,8.76,3.09,18.88,18.88,0,0,1,6.31,8q3.63,8.08.53,14.84t-12.92,11.16l-24.59,11-5-11.24,23.53-10.53q5.63-2.52,7.59-6.14t-.2-8.45a11,11,0,0,0-6.82-6.28q-4.7-1.53-10.67,1.14L905.7,364.45Z"/><path class="cls-3" d="M515.65,746.59v36.28H505.14v-5.08c-3.31,4-8.57,6.62-16.09,6.62-14.5,0-23.68-10.15-23.68-22.17V736.39c0-12.83,9.56-23.31,25.29-23.31,15.35,0,24.53,10.14,24.53,22.51v1H502.4v-1c0-6.23-4.31-11.44-11.74-11.44-8,0-12.47,5.47-12.47,12.28v24.51c0,7.27,4.53,12.39,12.81,12.39,7.62,0,12.85-4.14,12.85-12.35v-3.52h-13.5V746.59Z"/><path class="cls-3" d="M564.08,765.63v.54c0,10.17-7.79,18-20.91,18s-20.85-8.15-20.85-18.84V748.36c0-10.63,7.69-18.84,20.58-18.84,13.12,0,20.76,8.21,20.76,18.86v11.93h-29.6v4.77c0,5,3.19,8.81,9.11,8.81s9.23-3.39,9.23-7.86v-.4Zm-30-17.08v2.29h17.86v-2.27c0-5-3.09-8.83-9-8.83C537.14,739.74,534.06,743.58,534.06,748.55Z"/><path class="cls-3" d="M597.42,729.52V740.9h-3.5c-6.81,0-11.41,3.89-11.41,10.93v31H570.76v-52.1h10.72v5.91c2.8-4.43,7.41-7.16,14-7.16Z"/><path class="cls-3" d="M667.64,782.87H656l-.05-35.13c0-4.86-2.45-8-7.5-8s-7.81,3.27-7.81,8.36v34.77H628.85V747.74c0-4.86-2.46-8-7.5-8-4.56,0-7.37,2.75-7.8,7.14v36H601.8v-52.1h10.73v4.36c2.58-3.48,6.56-5.61,12.06-5.61,5.79,0,10.14,2.22,12.83,5.69,2.75-3.53,7-5.69,13-5.69,10.94,0,17.18,7.33,17.18,16.24Z"/><path class="cls-3" d="M714.46,748.38v34.49H704.19v-3.7c-2.77,2.9-6.9,5-12.63,5-11.64,0-18.07-7.14-18.07-16.29s6.8-16.29,19-16.29a17.78,17.78,0,0,1,10.17,2.87v-5.89c0-5.29-2.8-8.78-8-8.78-4.8,0-8,2.82-8,7.43v.88H675v-1c0-10.25,7.8-17.56,19.72-17.56C707.07,729.52,714.46,737.73,714.46,748.38Zm-11.32,19.45c0-4-2.88-7.49-8.79-7.49-5.67,0-9,3.49-9,7.49s3.29,7.45,9,7.45C700.26,775.28,703.14,771.83,703.14,767.83Z"/><path class="cls-3" d="M763.26,746.18v36.69H751.52V748.56c0-5.32-2.81-8.82-8.49-8.82-5.36,0-8.45,3.45-8.45,8.82v34.31H722.84v-52.1h10.72v4.52c2.61-3.58,6.67-5.77,12.3-5.77C757.12,729.52,763.26,737,763.26,746.18Z"/><path class="cls-3" d="M511.66,809.86l-30.88,47.43H511.5v11h-46v-9.8l30.63-47.43H466.56v-11h45.1Z"/><path class="cls-3" d="M557.51,851.08v.54c0,10.17-7.79,18-20.91,18s-20.86-8.15-20.86-18.84V833.8c0-10.62,7.69-18.83,20.59-18.83,13.12,0,20.76,8.21,20.76,18.86v11.92h-29.6v4.78c0,5,3.18,8.81,9.11,8.81s9.22-3.4,9.22-7.86v-.4Zm-30-17.08v2.29h17.85V834c0-5-3.09-8.83-9-8.83C530.57,825.19,527.49,829,527.49,834Z"/><path class="cls-3" d="M590.85,815v11.38h-3.51c-6.81,0-11.41,3.89-11.41,10.92v31.05H564.19V816.21h10.72v5.92c2.8-4.43,7.4-7.16,14-7.16Z"/><path class="cls-3" d="M634.56,833.8v16.93c0,10.62-7.69,18.84-20.76,18.84S593,861.35,593,850.73V833.8c0-10.62,7.69-18.83,20.76-18.83S634.56,823.18,634.56,833.8Zm-20.76-8.61c-5.82,0-9,3.83-9,8.81v16.53c0,5,3.2,8.81,9,8.81s9-3.83,9-8.81V834C622.81,829,619.62,825.19,613.8,825.19Z"/><polygon class="cls-3" points="347.33 748.96 347.33 760.57 382.83 760.57 382.82 725.02 371.2 725.03 371.21 740.81 353.87 723.46 345.66 731.67 362.95 748.96 347.33 748.96"/><path class="cls-3" d="M418.55,727a49.77,49.77,0,0,0-34.8-14v11.61c20.79,0,37.7,16.27,37.7,36.27s-16.91,36.26-37.7,36.26-37.7-16.27-37.7-36.26H334.44A46.86,46.86,0,0,0,349,794.8a50.38,50.38,0,0,0,69.6,0,46.91,46.91,0,0,0,0-67.85Z"/><rect class="cls-4" width="1080" height="1080"/></g></svg>
