<svg xmlns="http://www.w3.org/2000/svg" viewBox="0 0 1080 1080" width="1080" height="1080"><defs><style>.cls-1{fill:#ffc80c;}.cls-2{fill:#fff;}.cls-3{fill:none;}</style></defs><title>facebook-profile-overlay20200212</title><g id="Layer_2" data-name="Layer 2"><polygon class="cls-1" points="1080 994.88 0 782 0 627.88 1080 842 1080 994.88"/><path class="cls-2" d="M345.34,770.53l-8.22,40.39-11.71-2.38,1.16-5.66c-4.59,3.68-11,5.42-19.41,3.72-16.15-3.29-24.07-16.67-21.35-30.05l5.86-28.77c2.91-14.28,15.94-23.79,33.45-20.22,17.08,3.48,25,16.85,22.2,30.62l-.22,1.09-14.23-2.9.22-1.09c1.41-6.93-2.21-13.71-10.48-15.39-8.91-1.82-15.12,3.26-16.66,10.84L300.39,778c-1.65,8.09,2.23,14.81,11.44,16.69,8.49,1.73,15.25-1.69,17.11-10.83l.8-3.92-15-3.06,2.46-12.11Z"/><path class="cls-2" d="M394.94,802.71l-.12.61c-2.31,11.32-12.75,18.21-27.35,15.23s-21.37-13.8-19-25.7L352.36,774c2.41-11.83,12.83-19.23,27.19-16.3,14.6,3,21.25,13.85,18.84,25.7l-2.71,13.28L362.73,790l-1.09,5.32c-1.14,5.6,1.55,10.53,8.14,11.87s11-1.69,12.06-6.67l.09-.44Zm-29.55-25.82-.52,2.55,19.88,4,.52-2.53c1.13-5.56-1.44-10.53-8-11.87C370.82,767.78,366.52,771.35,365.39,776.89Z"/><path class="cls-2" d="M440.24,770.07l-2.58,12.68-3.9-.8c-7.58-1.54-13.59,1.74-15.18,9.57l-7,34.56-13.08-2.66,11.82-58,11.93,2.44-1.34,6.58c4.13-4.29,9.87-6.29,17.19-4.8Z"/><path class="cls-2" d="M506.31,845.39l-13-2.65,7.9-39.12c1.1-5.41-.9-9.46-6.53-10.61-5.47-1.11-9.43,1.87-10.58,7.54l-7.89,38.7-13.07-2.66,8-39.1c1.11-5.41-.92-9.47-6.53-10.61-5.08-1-8.83,1.39-10.3,6.18l-8.16,40.06L433,830.46l11.82-58,11.93,2.44-1,4.85c3.66-3.28,8.58-4.76,14.7-3.51,6.45,1.32,10.79,4.78,13,9.25,3.86-3.3,9.12-4.74,15.8-3.38,12.18,2.48,17.47,12.06,15.45,22Z"/><path class="cls-2" d="M566.25,817.61,558.43,856,547,853.67l.84-4.11c-3.74,2.6-8.81,3.94-15.19,2.64-12.95-2.64-18.49-12-16.41-22.23s11.26-16.59,24.85-13.82a20.24,20.24,0,0,1,10.67,5.5l1.34-6.56c1.19-5.88-1.13-10.41-6.89-11.58-5.33-1.09-9.51,1.34-10.55,6.47l-.2,1-13.08-2.66.22-1.07c2.33-11.42,12.67-17.79,25.93-15.09C562.31,794.94,568.67,805.75,566.25,817.61Zm-17,19.09c.9-4.45-1.51-9-8.1-10.34-6.31-1.28-10.77,1.86-11.67,6.31s2,9,8.28,10.33C544.35,844.34,548.34,841.15,549.25,836.7Z"/><path class="cls-2" d="M621.08,826.23l-8.32,40.84-13.08-2.66,7.78-38.2c1.21-5.91-1.12-10.45-7.45-11.74-6-1.21-10.18,1.93-11.4,7.9l-7.78,38.2-13.07-2.67,11.81-58,11.94,2.43-1,5c3.72-3.39,8.74-4.91,15-3.64C618,806.29,623.16,816,621.08,826.23Z"/><path class="cls-2" d="M702.5,817.51l-45.13,45.8,34.19,7-2.5,12.28-51.2-10.43,2.23-10.91,44.85-45.86L652,808.64l2.5-12.27,50.21,10.23Z"/><path class="cls-2" d="M744.19,873.79l-.12.61c-2.31,11.32-12.75,18.2-27.35,15.23s-21.37-13.8-19-25.7l3.84-18.84c2.41-11.83,12.83-19.23,27.19-16.3,14.6,3,21.25,13.85,18.84,25.7l-2.71,13.28L712,861.06l-1.09,5.32c-1.14,5.6,1.55,10.53,8.14,11.87s11-1.69,12.06-6.67l.09-.44ZM714.64,848l-.52,2.55L734,854.57l.52-2.53c1.13-5.56-1.44-10.53-8-11.87C720.07,838.86,715.77,842.43,714.64,848Z"/><path class="cls-2" d="M789.49,841.15l-2.58,12.67L783,853c-7.58-1.54-13.59,1.74-15.18,9.57l-7,34.56-13.08-2.67,11.82-58,11.93,2.43-1.34,6.59c4.13-4.29,9.87-6.3,17.19-4.8Z"/><path class="cls-2" d="M833.88,872,830,890.87c-2.41,11.83-12.83,19.23-27.38,16.27s-21.25-13.85-18.84-25.69l3.84-18.83c2.41-11.83,12.83-19.23,27.38-16.27S836.29,860.2,833.88,872Zm-21.16-14.3c-6.48-1.32-10.9,2.23-12,7.77l-3.75,18.41c-1.13,5.53,1.56,10.53,8,11.85s10.9-2.23,12-7.77l3.75-18.4C821.89,864.05,819.2,859.05,812.72,857.73Z"/><polygon class="cls-2" points="153.66 721.23 151.16 733.52 188.73 741.18 196.38 703.55 184.09 701.05 180.69 717.75 166.08 695.65 155.62 702.57 170.19 724.6 153.66 721.23"/><path class="cls-2" d="M233.78,713.3A53.74,53.74,0,0,0,200,691l-2.5,12.28c22,4.49,36.39,25.35,32.08,46.51s-25.72,34.74-47.72,30.25-36.39-25.34-32.08-46.5l-12.29-2.51a50.56,50.56,0,0,0,8.05,39,54.4,54.4,0,0,0,73.65,15,50.64,50.64,0,0,0,14.63-71.8Z"/><rect class="cls-3" width="1080" height="1080"/></g></svg>
