<svg width="79" height="77" viewBox="0 0 79 77" fill="none" xmlns="http://www.w3.org/2000/svg">
    <path fill-rule="evenodd" clip-rule="evenodd" d="M11.548 65.087C18.953 72.248 28.787 76.191 39.239 76.191C49.691 76.191 59.525 72.248 66.93 65.087C74.378 57.887 78.478 48.3 78.478 38.095C78.478 27.89 74.378 18.304 66.93 11.103C59.525 3.943 49.691 0 39.239 0V9.238C55.782 9.238 69.24 22.184 69.24 38.095C69.24 54.007 55.782 66.952 39.239 66.952C22.697 66.952 9.238 54.007 9.238 38.095H0C0 48.3 4.101 57.887 11.548 65.087ZM29.2556 9.5731L29.2615 22.1257L15.4589 8.3224L8.9259 14.8564L22.6846 28.6151H10.2556V37.8541H38.5076L38.4946 9.5681L29.2556 9.5731Z" fill="#191919"/>
</svg>
